<svg width="180" height="22" viewBox="0 0 180 22" fill="none" xmlns="http://www.w3.org/2000/svg">
<path fill-rule="evenodd" clip-rule="evenodd" d="M0.0301921 5.29315C-0.00907609 7.88869 0.00105079 10.1869 0.0521735 10.4006C0.120831 10.6875 1.62537 9.49489 5.79422 5.84831C8.9011 3.13091 11.4432 0.838581 11.4432 0.754524C11.4432 0.670468 8.89122 0.595532 5.77224 0.588147L0.101322 0.574463L0.0301921 5.29315ZM11.9371 5.78663V10.9894H17.8688H23.8005L23.7344 5.83093L23.6682 0.672421L17.8026 0.628113L11.9371 0.584021V5.78663ZM88.9951 4.20193C88.1386 5.84462 86.2444 9.5342 84.7858 12.4012C83.3272 15.2683 81.732 18.3838 81.2408 19.3245C80.7495 20.2652 80.3477 21.0717 80.3477 21.1164C80.3477 21.1612 80.8323 21.1979 81.4245 21.1979H82.5015L83.1535 19.5146C83.5124 18.5889 84.2437 16.8539 84.7788 15.6593L85.7519 13.4873L89.9556 13.428L94.1593 13.3684L94.5875 14.0796C94.8229 14.4705 95.6411 16.2077 96.4057 17.9399L97.7961 21.0893L99.4755 21.1542C100.775 21.2044 101.126 21.1551 101.028 20.937C100.958 20.7817 99.74 18.3091 98.3222 15.4421C96.9043 12.575 94.7527 8.20233 93.5411 5.72516C92.0015 2.57792 91.2196 1.22042 90.9454 1.21825C90.6799 1.21629 90.048 2.18327 88.9951 4.20193ZM30.4593 11.4781L30.4588 21.3065H31.7559H33.053L33.1765 16.3287C33.2642 12.7972 33.3842 11.3263 33.5897 11.2664C33.8436 11.1921 41.6355 18.9731 42.9585 20.6216C43.4201 21.197 43.5789 21.2424 45.2308 21.2732C46.2079 21.2915 47.007 21.2674 47.0068 21.2194C47.0066 21.0098 43.0434 16.9021 39.8612 13.8131C37.9536 11.9614 36.3915 10.3915 36.3901 10.3242C36.3871 10.2032 38.7207 8.18756 43.8552 3.87613L46.5064 1.64982H45.3338H44.1612L39.1033 6.1083C36.2179 8.65128 33.8851 10.5396 33.6724 10.5038C33.3578 10.4506 33.2896 9.75922 33.2331 6.04531L33.1664 1.64982H31.813H30.4598L30.4593 11.4781ZM50.7264 11.4238L50.7373 21.1979L56.7135 21.1972L62.6894 21.1966L62.7062 20.4748L62.723 19.753L58.199 19.8527L53.675 19.9524V15.6881V11.4238H57.7087H61.7427V10.7629V10.1022L58.0175 10.1215C55.9688 10.1322 54.1536 10.1363 53.9837 10.1306C53.7493 10.123 53.675 9.22795 53.675 6.4076V2.69434L57.4413 2.83661C59.5126 2.91502 61.4948 3.02622 61.8455 3.08378C62.434 3.18065 62.4837 3.12896 62.4837 2.41936V1.64982H56.5996H50.7155L50.7264 11.4238ZM67.5053 11.4621V21.3117L68.9254 21.2005L70.3454 21.0893L70.4124 16.691L70.479 12.2926H72.3111C78.8765 12.2926 82.8162 9.36913 81.8649 5.20301C81.5025 3.61657 81.0217 3.06293 79.3974 2.36115C78.0255 1.76885 77.9111 1.75712 72.7534 1.68544L67.5053 1.61247V11.4621ZM106.175 3.00733C105.968 4.66717 104.174 15.7865 103.678 18.4829C103.16 21.2976 103.133 21.1979 104.39 21.1979H105.464L105.513 19.6232C105.588 17.2233 106.898 6.68084 107.148 6.46038C107.197 6.41803 107.678 7.15086 108.218 8.08917C108.758 9.02726 109.717 10.6256 110.349 11.641C110.981 12.6565 112.443 15.1732 113.597 17.234C114.75 19.2948 115.771 20.975 115.865 20.9681C115.958 20.9613 117 19.2263 118.18 17.1128C121.041 11.9864 124.626 6.37154 124.825 6.70516C124.912 6.85156 125.058 7.55616 125.149 8.27118C125.351 9.85913 126.528 20.7865 126.53 21.0893C126.531 21.2098 127.19 21.3065 128.013 21.3065C128.837 21.3065 129.494 21.21 129.493 21.0893C129.492 20.9698 129.267 19.406 128.994 17.6141C128.295 13.0363 127.026 3.20107 127.025 2.35573C127.025 1.11681 126.278 1.46651 125.173 3.22301C124.629 4.0866 123.685 5.58854 123.073 6.56029C122.462 7.53227 120.795 10.1969 119.369 12.4818C117.943 14.7668 116.712 16.6364 116.634 16.6364C116.314 16.6369 112.176 10.1721 108.744 4.31053C106.886 1.13853 106.435 0.909821 106.175 3.00733ZM134.246 11.4601C134.294 18.7972 134.384 21.2919 134.604 21.3562C135 21.4724 134.559 21.8905 142.219 14.1458C149.702 6.57941 150.588 5.71082 150.921 5.6133C151.162 5.54271 151.228 7.20538 151.228 13.3404V21.1577L152.587 21.232L153.945 21.3065L153.945 11.4781L153.945 1.64982H153.253C152.665 1.64982 151.981 2.23149 148.715 5.50513C146.6 7.62544 143.161 11.0687 141.072 13.1567L137.274 16.9529L137.209 9.30136L137.144 1.64982H135.663H134.182L134.246 11.4601ZM160.119 11.4238V21.1979H161.596H163.073L163.14 16.2566L163.206 11.3152L170.183 11.2575L177.16 11.1999L177.16 16.2531V21.3065L178.528 21.2771L179.896 21.2478L179.948 11.4488L180 1.64982H178.58H177.16V5.74384V9.83785L173.341 9.98772C171.24 10.07 168.073 10.0703 166.302 9.98794L163.083 9.8385V5.74405V1.64982H161.601H160.119V11.4238ZM76.9976 3.0777C79.7133 4.32487 79.6787 8.43082 76.9381 10.1497C75.7252 10.9106 74.4246 11.204 72.2595 11.2053L70.4689 11.2066V6.83918V2.47171L73.2473 2.55142C75.4471 2.61463 76.228 2.72432 76.9976 3.0777ZM91.9489 8.49424C92.9032 10.3934 93.6841 12.0248 93.6841 12.12C93.6841 12.2149 92.0726 12.2926 90.103 12.2926C88.1334 12.2926 86.522 12.2334 86.522 12.1608C86.522 11.9225 90.0494 4.89697 90.1324 4.96995C90.1771 5.00926 90.9946 6.59504 91.9489 8.49424ZM0.0104341 16.2105L0.061557 21.2144L5.75248 21.2604C8.88233 21.2858 11.4432 21.2567 11.4432 21.1961C11.4432 21.0541 0.242095 11.2066 0.0805764 11.2066C0.0136476 11.2064 -0.0179675 13.4581 0.0104341 16.2105ZM17.8007 16.1497C14.7116 18.8684 12.1841 21.1407 12.1841 21.1996C12.1841 21.2585 12.5175 21.2943 12.925 21.2793C13.3325 21.2643 15.9474 21.24 18.7359 21.225L23.806 21.1979L23.7825 16.2023C23.7694 13.4547 23.682 11.2066 23.5879 11.2066C23.494 11.2066 20.8898 13.431 17.8007 16.1497Z" fill="white"/>
</svg>
