<svg width="86" height="32" viewBox="0 0 86 32" fill="none" xmlns="http://www.w3.org/2000/svg">
<path fill-rule="evenodd" clip-rule="evenodd" d="M69.4477 0.0416707C68.6573 0.24919 68.4236 1.03578 69.0321 1.44047C69.9618 2.05891 71.4431 1.30399 70.9823 0.446576C70.8093 0.124953 69.9722 -0.0959718 69.4477 0.0416707ZM20.2914 0.257107C20.2355 0.358755 18.3043 4.02803 15.9999 8.41116C13.6955 12.7943 11.7637 16.4647 11.707 16.5675C11.6104 16.7433 11.7742 16.7529 14.3892 16.7259L17.1743 16.6972L19.0554 13.1083C20.3878 10.5663 20.9385 9.62725 20.9435 9.88892C20.9474 10.0921 20.8191 11.6358 20.6585 13.3194C20.4978 15.003 20.3652 16.4646 20.3638 16.5674C20.3616 16.7411 20.5724 16.7522 23.3325 16.7258L26.3036 16.6972L30.6511 8.42045C33.0423 3.86822 34.9986 0.126641 34.9986 0.105741C34.9986 0.0848417 33.7573 0.0806198 32.2402 0.0964529L29.4816 0.125164L27.6199 3.68498C26.5959 5.6429 25.7247 7.24605 25.6841 7.24753C25.6205 7.24975 25.8829 4.01831 26.1918 0.995985L26.2861 0.0723869H23.3396C20.6708 0.0723869 20.3835 0.0898033 20.2914 0.257107ZM35.6611 0.204329C35.624 0.276951 33.6634 4.01304 31.3041 8.50679C28.9449 13.0005 27.0147 16.6947 27.0147 16.7159C27.0147 16.7372 28.2558 16.7417 29.7727 16.7259L32.5307 16.6972L36.7789 8.61118C39.1154 4.16387 41.0723 0.423249 41.1276 0.298801C41.228 0.0728096 41.2228 0.0723869 38.4784 0.0723869C36.4131 0.0723869 35.7119 0.105214 35.6611 0.204329ZM41.3266 1.68209C40.8695 2.56737 38.9261 6.30145 37.0079 9.9799C35.0896 13.6584 33.5201 16.6875 33.5201 16.7113C33.5201 16.7352 34.7575 16.7417 36.2698 16.7259L39.0194 16.6972L40.8162 13.3303C42.8597 9.501 42.8016 9.5332 42.8238 12.2207C42.8298 12.9517 42.8786 14.2735 42.9323 15.1581L43.0297 16.7665L46.7025 16.6904C48.8673 16.6455 50.3751 16.6535 50.3751 16.7096C50.3751 16.7621 48.0631 17.2508 45.2373 17.7958C42.4114 18.3407 35.8414 19.6123 30.6371 20.6215C25.4327 21.6307 20.5758 22.5317 19.844 22.6236C18.3284 22.8139 16.4618 22.7646 14.9889 22.4954C10.6384 21.7003 8.29481 19.2133 8.81495 15.9437C9.01455 14.6887 9.50822 13.4078 10.3091 12.0663L10.8844 11.1028L10.3626 11.525C7.74688 13.6413 4.09942 17.4924 2.47646 19.8515C1.08268 21.8776 0.465849 23.1579 0.140874 24.6989C-0.134128 26.0028 -0.0118554 27.0014 0.554855 28.0831C1.16769 29.2524 2.88719 30.4462 5.04876 31.203C6.97614 31.8779 7.80602 31.9969 10.6033 32C15.08 32.0046 16.6911 31.6272 31.2285 27.1685C39.0684 24.764 56.33 19.4388 69.4477 15.3779C73.7982 14.0312 79.2206 12.3561 81.4975 11.6556C83.7744 10.955 85.7206 10.3364 85.8221 10.2807C86.0696 10.1455 86.0565 9.99447 85.7973 9.99447C85.5773 9.99447 79.1494 11.2219 67.8001 13.4309C64.0883 14.1533 61.0148 14.7444 60.9699 14.7444C60.9251 14.7444 61.0178 14.4758 61.1761 14.1473C61.3343 13.8189 61.4638 13.5339 61.4638 13.514C61.4638 13.4941 60.0334 13.4778 58.285 13.4778C56.5367 13.4778 55.1074 13.4658 55.1089 13.4514C55.1104 13.4369 55.5717 12.5462 56.1341 11.4722L57.1567 9.51948L59.8132 9.49076C62.1698 9.46522 62.481 9.44147 62.5711 9.27966C62.627 9.17938 62.9602 8.55102 63.312 7.88339C63.6637 7.21576 63.9975 6.58644 64.054 6.4848C64.1495 6.31306 63.9733 6.30008 61.5536 6.30008C60.1218 6.30008 58.9487 6.2644 58.947 6.22091C58.945 6.17742 59.324 5.39463 59.789 4.48148L60.6345 2.82123L63.449 2.79262L66.2636 2.76402L66.9686 1.44617C67.3562 0.721439 67.6735 0.11577 67.6735 0.100359C67.6735 0.0849478 63.8871 0.0723869 59.2592 0.0723869H50.8448L48.143 2.42096C46.6569 3.71274 45.4202 4.78939 45.3946 4.81356C45.369 4.83773 45.3223 4.83773 45.2905 4.81356C45.2588 4.78939 45.7561 3.80151 46.3955 2.61846C47.035 1.43541 47.5975 0.378494 47.6459 0.269879C47.7296 0.0816759 47.6024 0.0723869 44.9457 0.0723869H42.1575L41.3266 1.68209ZM70.4154 0.437076C70.8568 0.75205 70.8615 0.812955 70.4719 1.16646C70.1042 1.50022 69.7632 1.51901 69.3278 1.22936C68.8379 0.903519 68.9118 0.55097 69.5217 0.304079C69.9383 0.135403 70.0075 0.145747 70.4154 0.437076ZM69.3927 0.550336C69.1647 0.974346 69.4673 1.44237 69.7576 1.11505C69.8512 1.00971 69.8874 1.00601 69.8891 1.10154C69.8903 1.17416 69.9745 1.23348 70.0761 1.23348C70.1911 1.23348 70.2609 1.08391 70.2609 0.837654C70.2609 0.489009 70.2146 0.438026 69.8732 0.409738C69.6206 0.388838 69.4532 0.437815 69.3927 0.550336ZM69.9652 0.600157C70.0155 0.658212 69.9861 0.705711 69.9 0.705711C69.814 0.705711 69.7434 0.658212 69.7434 0.600157C69.7434 0.542102 69.7727 0.494603 69.8086 0.494603C69.8446 0.494603 69.9149 0.542102 69.9652 0.600157ZM52.4003 8.04499L48.5269 15.4305L48.4353 14.375C48.3848 13.7944 48.2955 11.8707 48.237 10.1L48.1302 6.88062L52.1525 3.7348C54.3648 2.00466 56.1971 0.604907 56.2243 0.624223C56.2514 0.643645 54.5305 3.98295 52.4003 8.04499ZM13.5093 19.8985C13.1659 20.1694 13.194 20.8161 13.5604 21.0776C14.0125 21.4004 14.9328 21.3655 15.3238 21.0106C15.9913 20.4048 15.4694 19.7054 14.35 19.7054C13.9604 19.7054 13.6693 19.7723 13.5093 19.8985ZM15.1292 20.2157C15.3248 20.4973 15.2309 20.8948 14.9831 20.8354C14.8917 20.8134 14.8171 20.6343 14.8171 20.4372C14.8171 20.1257 14.7591 20.0694 14.3735 20.0058C13.9383 19.9342 13.9396 19.9332 14.4441 19.9511C14.8203 19.9645 15.0041 20.0354 15.1292 20.2157ZM14.0138 20.914C14.1002 20.9768 14.1518 20.9472 14.1518 20.8349C14.1518 20.594 14.3349 20.6081 14.561 20.8665C14.7245 21.0534 14.7087 21.0776 14.4234 21.0776C13.7697 21.0776 13.4026 20.6312 13.6712 20.1627C13.7523 20.0214 13.7947 20.0829 13.829 20.3915C13.8547 20.6238 13.938 20.8589 14.0138 20.914ZM14.5953 20.2798C14.5953 20.3911 14.3116 20.438 14.2272 20.3405C14.1761 20.2814 14.2381 20.2332 14.3648 20.2332C14.4915 20.2332 14.5953 20.2541 14.5953 20.2798Z" fill="white"/>
</svg>
