<svg width="171" height="33" viewBox="0 0 171 33" fill="none" xmlns="http://www.w3.org/2000/svg">
<path fill-rule="evenodd" clip-rule="evenodd" d="M106.988 2.9178C106.819 4.32444 106.744 5.56713 106.82 5.67935C106.897 5.79157 107.202 5.88346 107.498 5.88346C107.924 5.88346 108.036 5.70747 108.036 5.04269C108.036 3.42794 107.676 0.360352 107.486 0.360352C107.381 0.360352 107.157 1.51117 106.988 2.9178ZM103.044 1.42054C103.044 1.88649 103.887 5.97635 104.005 6.08405C104.051 6.12522 104.403 6.08731 104.788 5.99995L105.488 5.84078L104.368 3.5399C103.127 0.991492 103.044 0.857933 103.044 1.42054ZM111.496 1.49008C111.379 1.76623 110.864 2.82918 110.351 3.85221C109.839 4.87499 109.459 5.74814 109.508 5.79233C109.556 5.83651 109.892 5.90329 110.252 5.9407C110.868 6.00471 110.941 5.8684 111.417 3.75631C111.903 1.6018 111.943 0.426378 111.496 1.49008ZM104.551 6.99411C103.881 7.43771 104.23 8.20367 105.054 8.09772C105.443 8.04776 105.71 7.81604 105.763 7.48441C105.867 6.82691 105.207 6.56004 104.551 6.99411ZM106.65 7.23737C106.65 7.96517 107.251 8.22551 107.916 7.78542C108.583 7.34382 108.236 6.63661 107.352 6.63661C106.796 6.63661 106.65 6.76188 106.65 7.23737ZM109.175 6.9813C108.712 7.48667 109.104 8.14291 109.869 8.14291C110.384 8.14291 110.533 8.00835 110.533 7.54215C110.533 7.21177 110.335 6.87285 110.094 6.789C109.517 6.58866 109.54 6.58389 109.175 6.9813ZM104.047 9.67733C101.394 10.2412 98.2386 12.3591 96.6088 14.6702C94.8799 17.1222 94.2489 20.9535 95.1001 23.8336C97.0401 30.397 104.603 33.9715 111.81 31.7316C115.931 30.451 118.886 27.4223 119.856 23.4854C121.369 17.3469 117.459 11.3134 110.949 9.73934C109.393 9.36327 105.683 9.32988 104.047 9.67733ZM0.0540875 20.8646L0.108452 32.1182H2.38041H4.65264L4.59828 27.9435L4.54391 23.769L6.98729 23.7695C12.4682 23.771 16.216 20.9565 16.2235 16.8333C16.2291 13.7838 14.8181 11.7944 11.7351 10.506C10.04 9.79758 9.82924 9.77223 4.9927 9.6929L0 9.61105L0.0540875 20.8646ZM24.9899 10.2708C24.7336 11.1959 15.7098 30.7726 15.2419 31.419C15.0205 31.7248 14.8394 32.0399 14.8394 32.1192C14.8394 32.1986 15.9109 32.2307 17.2204 32.1908L19.6016 32.1182L20.7535 29.4194L21.9055 26.7206H27.352H32.7984L34.0372 29.4194L35.2759 32.1182L37.678 32.1908C38.9994 32.2307 40.0803 32.1709 40.0803 32.0582C40.0803 31.9455 39.91 31.6304 39.7017 31.3583C39.4934 31.0859 37.9786 28.0951 36.3355 24.7122C34.6926 21.3293 32.7954 17.4318 32.1197 16.051C31.444 14.6702 30.5051 12.6651 30.0336 11.5949L29.176 9.64921H27.1692C25.265 9.64921 25.1535 9.6811 24.9899 10.2708ZM42.2993 9.74411C42.2993 9.79633 42.4959 10.2645 42.7359 10.785C43.1131 11.6019 43.1636 13.1225 43.105 21.9246L43.0374 32.1182L45.1041 32.1905L47.171 32.2628L47.0643 25.0356C47.0054 21.0607 47.0016 17.4694 47.0554 17.0552C47.1447 16.3691 47.7574 17.0125 53.9381 24.2829L60.7226 32.2636L62.629 32.191L64.5357 32.1182L64.5817 20.8837L64.6277 9.64921H62.5291H60.4303L60.5548 17.3381C60.6447 22.8836 60.5939 25.0009 60.3728 24.9324C60.1071 24.8503 55.7288 19.8183 49.0949 11.9707L47.1533 9.67382L44.7263 9.66152C43.3916 9.65474 42.2993 9.69189 42.2993 9.74411ZM70.0135 9.75365C69.95 9.81114 69.9316 14.8949 69.9727 21.0509L70.0479 32.2437H75.4597C80.2008 32.2437 81.0854 32.179 82.5965 31.7221C88.0682 30.0671 91.1168 26.148 91.1168 20.7675C91.1168 15.2858 87.3623 11.0717 81.4645 9.9329C80.1073 9.67105 70.2753 9.51691 70.0135 9.75365ZM124.595 20.8837L124.65 32.1182H126.921H129.191L129.137 27.753L129.083 23.3879L130.279 23.5607C130.936 23.6556 131.763 23.9044 132.115 24.113C132.869 24.5593 134.777 27.168 136.522 30.1352L137.761 32.2437H140.512C142.025 32.2437 143.263 32.1775 143.263 32.0964C143.263 32.0155 142.652 31.1399 141.905 30.1507C141.159 29.1618 139.844 27.3129 138.985 26.0425C138.125 24.772 137.019 23.4457 136.528 23.0955C135.862 22.6205 135.76 22.4576 136.127 22.4555C136.917 22.451 139.13 20.4266 139.835 19.0636C141.134 16.5506 140.383 13.5252 137.976 11.5657C135.91 9.8847 134.841 9.64921 129.275 9.64921H124.54L124.595 20.8837ZM156.146 10.2141C155.757 11.3704 147.085 30.1414 146.571 30.94C146.277 31.3967 146.036 31.877 146.036 32.007C146.036 32.1373 147.088 32.2437 148.373 32.2437H150.709L151.043 31.3023C151.228 30.7846 151.754 29.5419 152.213 28.5408L153.048 26.7206H158.493H163.938L165.163 29.4822L166.387 32.2437H168.693C170.096 32.2437 171 32.1421 171 31.9844C171 31.8416 170.674 31.1419 170.274 30.4292C169.876 29.7164 169.146 28.2799 168.653 27.2365C168.16 26.1934 166.181 22.0975 164.256 18.1347C162.33 14.1719 160.675 10.6416 160.577 10.2894C160.407 9.67608 160.315 9.64921 158.368 9.64921C156.503 9.64921 156.321 9.69541 156.146 10.2141ZM110.81 13.6949C115.77 15.6737 117.224 22.2901 113.534 26.085C111.834 27.8328 110.038 28.5744 107.482 28.5834C105.05 28.5922 103.544 28.0484 101.821 26.5399C100.089 25.024 99.3081 23.2258 99.3373 20.821C99.3658 18.4636 99.9578 17.0198 101.549 15.4254C103.913 13.0572 107.522 12.3832 110.81 13.6949ZM10.1524 13.9881C10.7584 14.3564 11.2405 14.9391 11.5024 15.6199C12.5722 18.3996 9.61844 20.6691 5.70832 20.0713L4.57664 19.8981V16.6565V13.415H6.89325C8.8454 13.415 9.35826 13.5051 10.1524 13.9881ZM81.9788 14.1041C83.6241 14.8379 84.8851 15.9739 85.7993 17.5455C86.8009 19.2675 86.8411 22.4588 85.8833 24.246C85.1422 25.6293 83.6031 27.0902 82.2029 27.7402C80.8809 28.3535 78.0506 28.7142 76.1387 28.5131L74.6131 28.3525L74.5396 20.8621L74.4661 13.3715L77.5907 13.4561C80.1431 13.5249 80.9467 13.6437 81.9788 14.1041ZM134.095 13.7848C134.543 13.9944 135.144 14.6388 135.484 15.274C135.999 16.2383 136.041 16.5338 135.783 17.4014C135.276 19.104 133.318 20.055 130.642 19.8981L129.255 19.8168L129.178 16.6159L129.1 13.415H131.203C132.512 13.415 133.603 13.5546 134.095 13.7848ZM28.9868 18.8125C29.9282 20.7456 30.7634 22.4686 30.8424 22.6411C30.9534 22.8828 30.1512 22.9549 27.3508 22.9549C25.3513 22.9549 23.7153 22.8969 23.7153 22.8261C23.7153 22.755 24.3819 21.2018 25.1968 19.3741C26.0117 17.5463 26.7634 15.8371 26.8677 15.5758C26.9717 15.3144 27.1059 15.145 27.1658 15.1992C27.2258 15.2534 28.0451 16.8795 28.9868 18.8125ZM160.425 19.5343C161.207 21.1742 161.847 22.6145 161.847 22.7352C161.847 22.856 160.286 22.9549 158.38 22.9549C156.473 22.9549 154.912 22.8562 154.912 22.7355C154.912 22.5002 157.857 15.7824 158.145 15.3609C158.239 15.2223 158.472 15.4339 158.661 15.8311C158.849 16.2282 159.644 17.8947 160.425 19.5343Z" fill="white"/>
</svg>
