<svg width="136" height="43" viewBox="0 0 136 43" fill="none" xmlns="http://www.w3.org/2000/svg">
<path fill-rule="evenodd" clip-rule="evenodd" d="M72.1443 1.31329C70.5484 2.04478 67.7304 3.664 65.8821 4.91175C61.8385 7.64323 50.5546 17.6481 43.6124 24.6577C37.7682 30.5582 28.4015 37.0914 22.5321 39.3601C16.7132 41.6098 11.3178 41.6049 8.49832 39.3465C7.22091 38.3233 6.51026 37.1946 6.51981 36.2053C6.55391 32.6882 11.2707 27.3547 16.1253 25.3438C18.0356 24.5528 18.4611 24.5517 20.9028 25.3345C24.1573 26.3774 28.9928 26.4506 30.6473 25.4815C31.7965 24.8084 31.7986 24.7276 30.6848 23.9874C30.0369 23.5569 27.9377 23.1624 26.0199 23.1116C23.9704 23.0565 22.56 22.7718 22.6003 22.4206C22.9631 19.2428 23.4166 19.0007 27.27 19.9295C29.0971 20.3698 33.0753 20.7199 36.1102 20.7079C42.3547 20.6823 46.6821 19.3728 49.0228 16.8008C50.3029 15.3941 50.3097 15.2668 49.1817 13.8874C47.4869 11.8158 44.1375 10.897 38.2804 10.897C35.298 10.897 32.9907 10.6468 32.7186 10.2939C31.7911 9.09146 26.5553 7.64268 23.0961 7.63121C20.2821 7.62138 19.1432 7.90545 17.4695 9.03356C16.173 9.90709 15.371 10.9614 15.371 11.7924C15.371 13.3351 17.0385 16.1677 18.1167 16.4556C18.5955 16.5834 18.47 17.3684 17.7491 18.7505C16.9273 20.3272 16.8216 21.2367 17.3276 22.3987C17.9865 23.9125 17.9244 23.966 14.4693 24.8581C3.86132 27.5973 -2.01284 33.3536 0.629954 38.42C1.83916 40.7385 4.70907 42.0228 9.57931 42.4254C16.4669 42.9947 26.8035 39.3547 33.0664 34.1539C36.128 31.612 36.9784 31.6628 34.8328 34.2599C33.8978 35.3918 32.9375 37.1007 32.6981 38.0578C32.3148 39.5945 32.4656 39.8387 33.9871 40.1446C36.2978 40.6095 41.0316 38.8832 44.7363 36.225C46.7401 34.7866 47.5005 34.4626 47.1227 35.2072C45.8623 37.6901 45.8603 38.928 47.1152 39.6628C50.7878 41.8141 59.2073 39.3334 66.603 33.9207C70.9733 30.7221 73.8569 29.1553 74.47 29.6464C74.6514 29.7912 72.9368 31.9223 70.661 34.3817C68.3844 36.8406 66.5218 39.2001 66.5218 39.6251C66.5218 41.406 68.248 40.5806 80.8441 32.7778C85.1107 30.1348 89.0282 28.5211 89.0282 29.4061C89.0282 29.6393 87.3859 31.5317 85.3781 33.6115C81.0453 38.0998 79.9302 39.6715 80.7806 40.0927C81.8466 40.6199 83.4132 39.8562 90.9392 35.14C102.068 28.1671 105.783 27.1526 100.244 32.5997C95.9882 36.7844 94.8519 38.6155 95.8893 39.6169C96.3339 40.0458 97.213 40.397 97.8439 40.397C99.5176 40.397 105.444 37.9125 107.583 36.3135C109.79 34.6642 110.475 34.55 109.512 35.9906C106.628 40.3091 112.772 41.7841 118.881 38.2397L121.614 36.6538L121.519 38.3888C121.442 39.7923 121.712 40.1567 122.933 40.296C123.763 40.3905 125.46 40.0807 126.704 39.6076C129.163 38.6729 135.594 34.6106 135.993 33.7398C136.129 33.4432 134.303 34.4511 131.935 35.9797C128.084 38.4648 125.17 39.4863 125.178 38.3484C125.182 37.5814 128.082 34.1217 131.065 31.3241C132.702 29.7896 134.041 28.3594 134.041 28.1463C134.041 27.5803 131.16 28.3752 129.834 29.3072C128.824 30.0163 128.529 29.9726 127.213 28.9182C124.487 26.7347 119.46 28.2446 109.8 34.1479C98.427 41.099 97.3835 40.4566 105.594 31.559C107.404 29.5973 106.724 28.3785 103.818 28.3785C101.372 28.3785 95.9309 30.9089 90.4979 34.574C88.8686 35.6732 87.3737 36.5729 87.1766 36.5729C86.9795 36.5729 87.8811 35.5284 89.181 34.2512C93.8787 29.6361 94.0178 28.3785 89.8316 28.3785C87.1363 28.3785 82.8062 30.3943 76.4731 34.5981C72.6743 37.1192 72.6606 36.963 76.308 32.6473C77.7518 30.939 78.7312 29.2799 78.4843 28.9597C77.7218 27.9715 74.0008 28.3173 71.7829 29.5825C70.6214 30.2446 67.8129 32.1152 65.5404 33.7393C60.75 37.1629 55.8702 39.3044 52.8591 39.3044C50.9624 39.3044 50.7674 39.1526 50.9611 37.8256C51.1452 36.5637 51.8047 36.155 55.4637 35.0389C60.3776 33.5394 64.7234 30.6238 64.0714 29.2629C62.914 26.8461 53.0623 29.4979 47.1977 33.8049C43.656 36.4063 39.3471 38.7581 38.1229 38.7581C34.6535 38.7581 40.6852 30.963 47.7665 26.2944C58.4666 19.24 71.6881 9.91747 74.8485 7.19854C78.3568 4.1808 79.4337 2.06226 78.1085 0.783377C76.9327 -0.351828 75.5032 -0.224541 72.1443 1.31329ZM76.752 2.07428C76.752 4.3425 69.745 10.2551 54.4127 20.9237C49.8153 24.1223 45.8828 26.7396 45.6734 26.7396C44.3592 26.7396 64.5754 7.48317 69.9626 3.60336C73.7123 0.903563 76.752 0.218506 76.752 2.07428ZM28.3101 9.25044C31.5292 10.5659 32.2357 11.346 30.5887 11.7667C27.1786 12.6369 23.6717 13.9579 21.6755 15.1237C20.454 15.8366 19.1479 16.2682 18.7721 16.0824C17.4211 15.4138 15.9473 12.4009 16.3469 11.1253C17.2315 8.30206 23.5619 7.30999 28.3101 9.25044ZM46.0362 12.7904C49.0098 14.9461 46.6998 18.4435 41.5452 19.5897C36.7179 20.6631 26.3125 19.9092 25.149 18.4015C24.6456 17.7486 28.8605 14.5665 31.9268 13.2848C33.801 12.5015 33.8316 12.5162 35.167 14.8369C36.4021 16.9827 36.486 16.5561 35.4173 13.5602C34.8233 11.8945 36.2548 11.3657 40.7507 11.5891C43.3109 11.717 45.1223 12.1283 46.0362 12.7904ZM29.6741 24.3561C30.558 24.5823 30.558 24.674 29.6741 25.1215C28.2951 25.8202 25.8057 25.7732 24.0373 25.0149C22.5969 24.3976 22.5941 24.373 23.9111 23.9742C25.1612 23.5957 27.24 23.7333 29.6741 24.3561ZM61.0657 29.7803C61.0657 31.5066 59.5107 32.8701 56.0959 34.1376C54.172 34.851 52.4833 35.3438 52.3435 35.2312C51.4003 34.4757 58.1781 28.9248 60.0448 28.9248C60.6061 28.9248 61.0657 29.3099 61.0657 29.7803ZM127.099 30.172C127.246 30.7926 125.828 32.3047 123.189 34.3413C118.823 37.7103 114.836 39.5978 113.168 39.0848C111.32 38.5167 114.16 35.2635 120.277 30.9406C123.484 28.6751 126.66 28.3173 127.099 30.172Z" fill="white"/>
</svg>
