<svg width="116" height="50" viewBox="0 0 116 50" fill="none" xmlns="http://www.w3.org/2000/svg">
<path fill-rule="evenodd" clip-rule="evenodd" d="M42.1737 0.832085C41.3906 1.1876 40.8577 1.20322 39.9901 0.896256C39.178 0.608788 39.0619 0.653014 38.2355 1.56295C37.7005 2.15225 37.2677 2.46525 35.7989 3.32514C35.4775 3.51322 35.12 3.79533 35.0041 3.95206C34.8884 4.10878 34.5051 4.50009 34.1525 4.82153C33.7998 5.14308 33.3761 5.5989 33.2108 5.8345C32.9163 6.25442 32.9173 6.2746 33.2565 6.84577C33.6493 7.50745 34.1221 7.91095 34.8023 8.16525C35.0601 8.26157 35.631 8.5072 36.071 8.71089C36.8459 9.06972 36.9248 9.08134 38.5862 9.08134C40.5282 9.08134 41.4009 9.22188 41.9877 9.62892C42.3337 9.86897 42.3934 10.0166 42.3934 10.6335C42.3934 11.3079 42.3659 11.3615 41.9867 11.4275C41.7629 11.4665 40.6354 11.4447 39.4809 11.3793C35.895 11.1758 33.6878 11.4823 32.5021 12.3482C31.4625 13.1075 31.2183 14.4393 31.9736 15.231C32.3713 15.6477 33.5143 16.1484 34.0683 16.1484C34.6528 16.1484 35.372 15.7486 35.8543 15.1558C36.3633 14.53 36.3691 14.5273 37.0447 14.58C37.4181 14.6092 37.9979 14.7176 38.3331 14.8209C39.6947 15.24 40.0527 15.3416 40.9967 15.5765C44.3372 16.4076 45.6113 16.6043 47.6556 16.6043C49.6007 16.6043 50.6218 16.3811 51.8183 15.6946C52.2574 15.4427 52.7421 15.2365 52.8956 15.2365C53.3126 15.2365 54.0042 15.6288 55.8102 16.8897C58.2958 18.6252 59.8894 19.4176 62.9328 20.431C64.9023 21.0867 64.9054 21.0876 66.3834 21.3904C68.3394 21.7911 68.5414 21.8259 69.6697 21.9569C72.1939 22.2497 72.8124 22.3006 74.6814 22.3702C78.9475 22.529 82.1155 23.824 83.5664 26.0025C83.8761 26.4675 84.1295 26.8977 84.1295 26.9586C84.1295 27.0195 84.2713 27.2665 84.4445 27.5074C84.6178 27.7485 84.9687 28.2791 85.2243 28.6866C88.016 33.1378 91.853 36.7012 95.9175 38.6177L97.1073 39.1786L97.002 40.5375C96.7686 43.5468 97.793 45.2741 100.311 46.1164C101.444 46.4955 102.059 46.5562 102.344 46.3173C102.457 46.2232 102.521 45.5902 102.515 44.6361C102.507 43.3658 102.561 43.0029 102.836 42.5017C103.229 41.7855 103.216 41.7407 102.062 39.9554C101.628 39.2853 101.281 38.5483 101.15 38.0199C101.071 37.703 100.828 37.4751 100.099 37.0354C98.9686 36.3533 97.9575 35.4678 97.3511 34.6286C96.9405 34.0602 96.8988 33.8657 96.7668 31.9053C96.6888 30.7441 96.5913 29.7117 96.5506 29.6108C96.5097 29.51 96.4298 28.9915 96.3728 28.4586C96.2754 27.5471 96.1935 27.2091 95.7653 25.951C95.3897 24.8471 94.5413 23.2952 93.7929 22.3428C93.075 21.4292 93.1359 21.2879 94.6046 20.4633C97.7037 18.7233 99.5045 17.06 100.404 15.1062C101.894 11.8714 104.342 9.48051 107.841 7.84279C108.498 7.53503 109.994 6.93867 111.166 6.51738C114.617 5.27621 114.789 5.18457 115.44 4.23234C116.14 3.20979 116.177 2.63497 115.589 1.93944C115.151 1.42024 114.481 1.10245 113.824 1.10245C113.257 1.10245 111.603 1.49866 110.521 1.89362C107.327 3.0591 102.594 6.86378 101.722 8.96736C101.232 10.1466 101.116 10.3533 100.211 11.6455C98.9816 13.4011 97.0486 15.3016 94.7101 17.0538C91.7442 19.276 85.8044 19.4789 79.9015 17.5596C78.9872 17.2622 74.3945 15.0351 73.9419 14.6695C73.8967 14.6331 73.2765 14.2969 72.5637 13.9225C71.1643 13.1876 69.2698 12.1797 67.7494 11.361C67.2254 11.0789 66.1305 10.4895 65.3165 10.0512C64.5025 9.61296 63.7996 9.22827 63.7544 9.19635C63.7092 9.16444 63.0437 8.8071 62.2755 8.40223C61.5074 7.99747 60.8419 7.6383 60.7967 7.60411C60.7165 7.54358 60.0137 7.17838 57.841 6.06863C56.5554 5.41185 53.7206 4.24089 52.2523 3.75999C50.2705 3.11097 48.5729 2.75066 46.0905 2.45225C44.9125 2.31069 44.786 2.24697 44.2646 1.5332C43.817 0.920536 43.3227 0.529001 43.0096 0.539259C42.8967 0.542907 42.5206 0.674672 42.1737 0.832085ZM0.116335 31.4935C0.0524166 31.5379 0 35.3807 0 40.033C0 47.0831 0.0377928 48.5137 0.226591 48.6224C0.383841 48.7129 1.42741 48.7434 3.63614 48.7218L6.81909 48.6908L6.90125 46.6961L6.9834 44.7014L10.7513 44.6707C14.4888 44.6403 14.5235 44.6377 15.0595 44.3542C15.4036 44.172 15.6635 43.9041 15.7754 43.6156C15.8916 43.3165 15.9351 41.3946 15.9038 37.9479L15.8564 32.733L15.4608 32.3482C15.2432 32.1366 14.7256 31.8545 14.3106 31.7213C13.5867 31.489 13.2854 31.4779 6.89435 31.4459C3.23044 31.4277 0.180418 31.4491 0.116335 31.4935ZM17.7461 39.7467C17.7461 48.6305 17.7165 48.38 18.8029 48.6949C19.2765 48.8322 20.4806 48.8597 25.5869 48.8504C29.0013 48.8441 31.9731 48.8045 32.191 48.7623C32.4087 48.72 32.7244 48.5578 32.8923 48.4018C33.183 48.1316 33.1975 47.7361 33.1965 40.0836C33.196 35.6647 33.1947 31.9839 33.1937 31.9043C33.1922 31.791 32.4682 31.7661 29.8643 31.7903L26.5369 31.8212L26.4548 38.9829C26.3754 45.9058 26.3619 46.15 26.0537 46.3064C25.6222 46.5252 25.5187 46.513 25.0507 46.1883L24.6473 45.9086V38.8363V31.7642H21.1967H17.7461V39.7467ZM36.7163 31.9246C36.0549 32.1244 35.364 32.7068 35.2465 33.1638C35.1944 33.3658 35.173 36.9932 35.1988 41.2249L35.2457 48.9188H38.6963H42.1469L42.2291 41.6642C42.3076 34.7339 42.3252 34.3989 42.6242 34.1697C43.011 33.8732 43.2342 33.8688 43.7307 34.1477L44.1187 34.3655L44.2008 41.6422L44.283 48.9188H47.5693H50.8556L50.9378 41.6422L51.0199 34.3656L51.4079 34.1477C51.8923 33.8756 51.946 33.8765 52.4754 34.1655L52.9071 34.4011L52.9495 41.6599L52.9917 48.9188L56.4875 48.9496L59.9835 48.9803L59.9381 40.7167L59.893 32.4532L59.4376 32.1371L58.9822 31.8212L56.5621 31.8378C55.231 31.847 53.9571 31.855 53.7311 31.8557C53.5052 31.8563 51.1849 31.8345 48.5751 31.807C44.6593 31.766 43.7674 31.7856 43.4731 31.9194C43.1708 32.0568 43.0549 32.0579 42.7138 31.9269C42.1551 31.7123 37.425 31.7104 36.7163 31.9246ZM62.8106 31.8815C62.6078 31.938 62.2938 32.1528 62.1129 32.3586C61.7918 32.7239 61.7837 32.9306 61.7832 40.8567L61.7826 48.9802L65.3565 48.9496L68.9303 48.9188L68.9752 46.8898L69.0202 44.8606L69.8789 44.895L70.7378 44.9293L70.8199 46.9241L70.9021 48.9188L74.3116 48.9496L77.7212 48.9805V40.9309C77.7212 32.0033 77.757 32.3062 76.6568 31.9439C76.1868 31.7893 75.2073 31.7652 69.6449 31.7714C66.0888 31.7753 63.0133 31.8249 62.8106 31.8815ZM7.89043 33.874C8.15432 33.9687 8.44647 34.1449 8.53947 34.2656C8.64513 34.4025 8.70872 35.8163 8.70872 38.0294C8.70872 42.0031 8.64759 42.2808 7.74205 42.4187C7.46485 42.461 7.16218 42.4631 7.06951 42.4234C6.95958 42.3762 6.90125 40.8765 6.90125 38.093C6.90125 33.9303 6.91571 33.7923 7.36133 33.7109C7.38828 33.706 7.62653 33.7794 7.89043 33.874ZM70.5618 34.2229C70.7874 34.3795 70.8199 34.9476 70.8199 38.7313V43.0606L69.9573 43.026L69.0946 42.9916L69.0516 38.7277C69.0126 34.8812 69.0353 34.4433 69.2824 34.2538C69.618 33.9967 70.2148 33.9823 70.5618 34.2229ZM81.9283 46.241C80.7513 46.4941 79.9789 47.4542 80.3405 48.2146C80.5898 48.7384 81.4883 49.2845 82.2676 49.3859C82.9673 49.4769 84.1193 49.1265 84.5035 48.7057C85.1169 48.034 85.1699 47.7581 84.7902 47.2139C84.211 46.384 83.0688 45.9957 81.9283 46.241ZM83.4777 46.641C84.3089 46.9392 84.6832 47.7175 84.2826 48.315C83.8119 49.017 82.1957 49.2545 81.4032 48.7379C80.7314 48.3002 80.5729 47.4905 81.0722 47.0481C81.3691 46.7851 82.2121 46.469 82.6178 46.4686C82.8255 46.4684 83.2124 46.546 83.4777 46.641ZM81.8619 46.9469C81.7472 47.0264 81.6648 47.4078 81.6648 47.8587C81.6648 48.4717 81.7163 48.6338 81.9112 48.6338C82.0755 48.6338 82.1577 48.5198 82.1577 48.2919C82.1577 48.0665 82.2403 47.9499 82.3999 47.9499C82.5332 47.9499 82.757 48.1038 82.8971 48.2919C83.0373 48.4799 83.2652 48.6338 83.4035 48.6338C83.6211 48.6338 83.6162 48.588 83.3666 48.2949C83.0849 47.9643 83.0871 47.9493 83.4535 47.6787C83.7552 47.456 83.7948 47.3572 83.6551 47.1762C83.368 46.8039 82.2703 46.6636 81.8619 46.9469ZM83.1436 47.3875C83.1436 47.5771 83.0557 47.6161 82.6932 47.587C82.4214 47.5653 82.221 47.4718 82.1881 47.3515C82.1457 47.1966 82.2464 47.152 82.6386 47.152C83.0394 47.152 83.1436 47.2006 83.1436 47.3875Z" fill="white"/>
</svg>
