<svg width="74" height="41" viewBox="0 0 74 41" fill="none" xmlns="http://www.w3.org/2000/svg">
<path fill-rule="evenodd" clip-rule="evenodd" d="M38.8083 2.5721C35.1782 4.31938 33.4002 5.20211 33.4205 5.24707C33.4372 5.284 36.8371 10.1597 40.9759 16.0819L48.5011 26.8497H55.8239C59.8514 26.8497 63.1348 26.8325 63.1203 26.8115C62.5866 26.0416 44.2885 0.0247481 44.2633 0.000251877C44.243 -0.0196099 41.7882 1.13772 38.8083 2.5721ZM26.2468 12.0126C23.2579 13.4008 20.8028 14.5438 20.7912 14.5525C20.7795 14.5613 22.687 17.334 25.0301 20.7142L29.2902 26.8599V28.128V29.3961H30.8429H32.3956V28.1229V26.8497H38.1407C41.3004 26.8497 43.8857 26.8344 43.8857 26.8158C43.8857 26.7278 31.81 9.4837 31.75 9.48599C31.7123 9.48741 29.2358 10.6244 26.2468 12.0126ZM13.4218 21.2266C10.4503 22.6429 8.01535 23.8057 8.01101 23.8106C8.00666 23.8155 8.46601 24.5012 9.03182 25.3346L10.0605 26.8497H17.3788H24.6971L24.5869 26.6794C24.3148 26.2587 18.8839 18.6504 18.856 18.6509C18.8389 18.6512 16.3935 19.8102 13.4218 21.2266ZM71.5184 26.9797C71.1596 27.0703 70.7043 27.3953 70.5355 27.6812C70.2874 28.1014 70.4147 28.6981 70.829 29.057C71.2817 29.4493 72.0604 29.5628 72.6731 29.3259C72.8439 29.2599 73.0448 29.1512 73.1195 29.0845C73.473 28.7689 73.6046 28.2111 73.4351 27.7472C73.3199 27.4318 72.8738 27.0818 72.4599 26.982C72.0571 26.8848 71.8958 26.8844 71.5184 26.9797ZM24.6941 29.1194V31.2873L24.5233 31.1884C24.2414 31.0251 23.5095 30.7414 23.0793 30.6288C22.318 30.4293 21.9564 30.3903 20.9055 30.3938C20.006 30.3969 19.807 30.4135 19.2779 30.5298C18.0696 30.7952 17.157 31.2322 16.2784 31.9658C15.4309 32.6735 14.8685 33.536 14.5932 34.5506C14.452 35.0705 14.4539 36.2177 14.5968 36.7551C15.1547 38.8545 17.075 40.449 19.5702 40.8849C21.0395 41.1416 22.7032 40.964 24.0886 40.4026L24.6941 40.1573V40.4551V40.7529H26.2779H27.8617V33.8522V26.9515H26.2779H24.6941V29.1194ZM43.9478 29.1184V31.2853L43.6637 31.1249C43.2301 30.8804 42.5233 30.6299 41.9169 30.5059C41.2124 30.3618 39.5754 30.3454 38.8831 30.4754C37.6543 30.7062 36.593 31.169 35.705 31.8614C34.7854 32.5785 34.2148 33.3613 33.8707 34.3781C33.759 34.7083 33.7385 34.9071 33.7385 35.6602C33.7385 36.4132 33.759 36.612 33.8707 36.9423C34.4821 38.7489 36.1054 40.1634 38.2028 40.7171C39.026 40.9344 39.398 40.9799 40.3455 40.979C41.6727 40.9777 42.7192 40.7615 43.6062 40.3055L43.9168 40.1459L43.9353 40.4494L43.9537 40.7529H45.5035H47.0532V33.8522V26.9515H45.5005H43.9478V29.1184ZM72.5047 27.2012C72.9567 27.3913 73.201 27.7292 73.201 28.1646C73.201 29.0252 72.2785 29.5447 71.3983 29.1796C70.9861 29.0086 70.7597 28.711 70.7276 28.2978C70.6865 27.7683 70.9119 27.4127 71.4309 27.1888C71.6919 27.0761 72.2219 27.0823 72.5047 27.2012ZM71.3998 28.1993C71.3998 28.8528 71.406 28.8868 71.524 28.8868C71.6332 28.8868 71.6483 28.8528 71.6483 28.6067C71.6483 28.3349 71.6533 28.3266 71.8191 28.3274C71.9663 28.3282 72.0102 28.3668 72.1373 28.6075C72.2567 28.8337 72.3128 28.8868 72.4323 28.8868C72.6111 28.8868 72.6114 28.8825 72.4557 28.6321C72.3874 28.5223 72.3315 28.4007 72.3315 28.362C72.3315 28.3232 72.3874 28.2499 72.4557 28.1993C72.6336 28.0673 72.6199 27.7945 72.4274 27.6368C72.2944 27.5277 72.2192 27.5117 71.8374 27.5117H71.3998V28.1993ZM72.2041 27.7379C72.2449 27.7781 72.2693 27.8756 72.2583 27.9543C72.2399 28.0861 72.2151 28.0986 71.9433 28.1129L71.6483 28.1285V27.8965V27.6645H71.8891C72.0229 27.6645 72.1629 27.6971 72.2041 27.7379ZM29.2902 35.5082V40.7037L30.8584 40.6901L32.4267 40.6765L32.4425 35.4946L32.4583 30.3128H30.8743H29.2902V35.5082ZM5.30009 30.4443C2.80829 30.8137 0.770566 32.3858 0.148486 34.4188C-0.0472805 35.0586 -0.0498891 36.254 0.143145 36.8824C0.744108 38.8391 2.63749 40.3972 4.97464 40.8584C6.45885 41.1513 8.32869 40.9671 9.64664 40.3982L10.2228 40.1495V40.4512V40.7529H11.7755H13.3283V35.6092V30.4655H11.778H10.2278L10.2098 30.8654L10.1918 31.2653L9.6826 31.0258C8.47589 30.4582 6.75045 30.2293 5.30009 30.4443ZM53.4694 30.4393C52.1455 30.6362 51.0721 31.0898 50.1064 31.8601C49.2324 32.5574 48.644 33.3985 48.3386 34.387C48.1465 35.0087 48.1503 36.3659 48.3458 36.9502C49.1355 39.3108 51.4205 40.8642 54.2889 40.9905C55.5178 41.0446 56.7557 40.8318 57.8139 40.3846C58.0955 40.2655 58.3469 40.1603 58.3725 40.1508C58.3982 40.1411 58.4191 40.2727 58.4191 40.4431V40.7529H59.9097H61.4003V35.6092V30.4655H59.9122H58.4242L58.4061 30.8654L58.3881 31.2653L57.8789 31.0258C57.2658 30.7375 56.5823 30.5452 55.8008 30.4412C55.1056 30.3488 54.0838 30.3479 53.4694 30.4393ZM66.7417 30.4397C64.8861 30.7297 63.5787 31.5769 63.1257 32.7827C62.9512 33.2473 62.9398 34.0208 63.1011 34.4607C63.3663 35.1844 63.947 35.8167 64.6119 36.1056C65.2878 36.3993 66.3297 36.6245 68.2012 36.8811C69.5146 37.0612 69.7177 37.1034 70.1126 37.2781C70.9769 37.6603 70.7957 38.4603 69.7477 38.8894C68.7195 39.3104 67.1165 39.113 66.4391 38.482C66.1743 38.2353 65.9964 37.8856 65.9964 37.6118V37.4426H64.3187H62.641L62.6793 37.6591C62.8191 38.4508 63.1615 39.0671 63.7528 39.5914C64.9226 40.6287 66.7362 41.0904 69.1005 40.953C72.1263 40.777 73.785 39.6847 73.9859 37.7357C74.0719 36.9018 73.7652 36.2124 73.0514 35.6347C72.2059 34.9504 71.4286 34.6957 69.3192 34.4116C67.2709 34.1357 66.7695 34.0162 66.3852 33.7123C66.1337 33.5134 66.0781 33.2958 66.2117 33.0336C66.4365 32.5924 66.8029 32.4259 67.7185 32.3488C68.7916 32.2585 69.7055 32.4412 70.0495 32.8148C70.2108 32.9899 70.3305 33.2728 70.3591 33.5467L70.375 33.6994L71.9433 33.713L73.5115 33.7266V33.5811C73.5115 33.3112 73.2681 32.6527 73.0324 32.2848C72.7576 31.8561 72.0956 31.2904 71.5677 31.0331C71.1249 30.8174 70.601 30.6434 69.9864 30.508C69.3523 30.3683 67.4541 30.3283 66.7417 30.4397ZM7.46147 32.7837C8.07951 32.9127 8.59948 33.1581 9.07847 33.5467C9.5713 33.9464 9.83526 34.2949 10.0431 34.8199C10.2322 35.2973 10.2329 36.0441 10.0448 36.5259C9.47398 37.988 7.60295 38.8804 5.82801 38.5373C3.90556 38.1656 2.6196 36.5567 3.04964 35.0612C3.35422 34.0019 4.45249 33.0723 5.74472 32.7801C6.14396 32.6898 7.02075 32.6916 7.46147 32.7837ZM22.1745 32.8497C23.2481 33.1705 24.1545 33.9185 24.5195 34.7847C24.7246 35.2715 24.7234 36.0516 24.5167 36.5425C24.2216 37.2433 23.5209 37.9146 22.7039 38.2793C22.3162 38.4523 21.5381 38.614 21.0933 38.614C19.4191 38.614 17.9209 37.6459 17.549 36.3238C17.5059 36.1706 17.4728 35.8498 17.4754 35.6108C17.49 34.2976 18.5907 33.1457 20.1785 32.7818C20.6562 32.6723 21.6998 32.7078 22.1745 32.8497ZM41.1807 32.7842C41.6859 32.8921 42.3492 33.1887 42.7399 33.4815C44.4949 34.7967 44.2135 37.1792 42.1855 38.1759C41.5672 38.4798 41.0917 38.5861 40.3455 38.5874C39.8424 38.5882 39.5934 38.5627 39.256 38.4757C37.7807 38.0951 36.6811 36.8928 36.6811 35.6602C36.6811 34.3688 37.8689 33.1421 39.4697 32.7801C39.8704 32.6894 40.747 32.6916 41.1807 32.7842ZM55.7918 32.8326C56.9454 33.1329 57.9226 33.9569 58.2696 34.9217C58.4261 35.3571 58.4166 35.9991 58.2469 36.4495C57.8693 37.4516 56.7749 38.3 55.5557 38.5357C53.4545 38.9418 51.3582 37.6808 51.1747 35.9002C51.0319 34.5149 52.2021 33.1573 53.8608 32.7839C54.3841 32.6661 55.2349 32.6875 55.7918 32.8326Z" fill="white"/>
</svg>
