<svg width="116" height="38" viewBox="0 0 116 38" fill="none" xmlns="http://www.w3.org/2000/svg">
<path fill-rule="evenodd" clip-rule="evenodd" d="M0 14.8872C0 29.0339 0.0252174 29.3612 1.12077 29.3612C2.20008 29.3612 2.24211 29.031 2.25219 20.407L2.26228 11.4528L9.76249 24.2094C15.604 34.1444 17.5227 37.0009 18.4384 37.1231C19.0845 37.209 19.6135 37.1182 19.6135 36.9205C19.6135 36.7227 16.3353 30.9778 12.3285 24.154C8.32174 17.3296 5.04348 11.5362 5.04348 11.2786C5.04348 11.0215 6.88323 8.74735 9.1315 6.22546C14.4215 0.292131 14.3481 0.408415 12.7819 0.437363C11.8113 0.455516 10.3677 1.74737 7.00483 5.6097L2.52174 10.758L2.36259 5.58566C2.21633 0.817117 2.1177 0.413319 1.10172 0.413319C0.0313814 0.413319 0 0.823495 0 14.8872ZM55.1729 1.61784C53.4009 3.16876 53.3824 5.33347 55.1252 7.10763C58.125 10.1609 63.8437 7.85438 63.118 3.88461C62.4965 0.483479 57.9496 -0.813774 55.1729 1.61784ZM80.1353 14.8872C80.1353 28.3446 80.2042 29.3612 81.1159 29.3617C82.0198 29.3621 82.0837 28.6649 81.9313 20.4261C81.84 15.5113 81.966 11.6583 82.2115 11.8639C82.4564 12.0695 85.9381 17.8017 89.9488 24.6019C95.8771 34.6542 97.4753 36.9955 98.4946 37.1231C99.1845 37.209 99.7488 37.1418 99.7488 36.9735C99.7488 36.6388 89.5615 19.2127 86.485 14.2847L84.5775 11.2295L88.8935 6.43447C91.2673 3.79777 93.4512 1.36418 93.7459 1.02662C94.1399 0.576212 93.9286 0.413809 92.9524 0.415281C91.9252 0.416753 90.6055 1.58301 87.1401 5.55279C84.6744 8.37692 82.4519 10.6947 82.2009 10.7026C81.9498 10.7104 81.8237 8.39802 81.9207 5.56407C82.0792 0.924568 81.9991 0.411357 81.1159 0.412339C80.2042 0.41332 80.1353 1.42993 80.1353 14.8872ZM45.792 11.0848C45.6328 11.5573 43.7118 15.7581 41.5241 20.4207C39.3358 25.0833 37.5459 29.002 37.5459 29.1296C37.5459 29.2571 37.9869 29.3592 38.5266 29.3567C39.2444 29.3538 40.1707 27.9408 41.983 24.0823C43.3448 21.1841 44.9357 17.8262 45.518 16.6207L46.5765 14.429L50.1311 21.7724C52.8876 27.4683 53.9389 29.1497 54.8164 29.2675C55.8066 29.3999 55.3763 28.2214 51.3701 19.83C48.8523 14.5566 46.6326 10.2379 46.4375 10.234C46.242 10.2296 45.9517 10.6123 45.792 11.0848ZM18.1212 12.4129C15.6028 13.7647 12.8861 17.7128 12.8922 20.0125C12.9029 24.3625 16.4283 28.3392 21.154 29.3317C25.126 30.1658 28.16 29.367 31.232 26.6774L33.6232 24.5838V26.9727C33.6232 29.0339 33.7767 29.3612 34.744 29.3612C35.8244 29.3612 35.8647 29.0339 35.8647 20.2843C35.8647 11.5347 35.8244 11.2074 34.744 11.2074C33.7532 11.2074 33.6232 11.5352 33.6209 14.0286L33.6193 16.8498L32.5557 15.3234C30.7125 12.6764 28.2138 11.4915 24.1089 11.3168C20.9882 11.1839 20.1134 11.3438 18.1212 12.4129ZM57.2244 24.2094C57.2631 36.6585 57.3102 37.2114 58.3329 37.2114C59.3567 37.2114 59.401 36.6707 59.401 24.2094C59.401 11.5823 59.369 11.2074 58.2925 11.2074C57.2149 11.2074 57.1852 11.57 57.2244 24.2094ZM62.7633 20.2843C62.7633 29.0339 62.8036 29.3612 63.8841 29.3612C64.9303 29.3612 65.0048 29.0339 65.0048 24.4547V19.5483H69.7681H74.5314V24.4547C74.5314 29.0339 74.6059 29.3612 75.6522 29.3612C76.7326 29.3612 76.7729 29.0339 76.7729 20.2843C76.7729 11.5347 76.7326 11.2074 75.6522 11.2074C74.6379 11.2074 74.5314 11.5347 74.5314 14.6419V18.0764H69.7681H65.0048V14.6419C65.0048 11.5347 64.8984 11.2074 63.8841 11.2074C62.8036 11.2074 62.7633 11.5347 62.7633 20.2843ZM98.4868 12.2226C93.881 14.3515 91.8389 19.7598 94.0149 24.0666C97.4069 30.7801 107.791 31.5715 112.484 25.4743L113.758 23.8189V26.59C113.758 29.0339 113.891 29.3612 114.879 29.3612C115.96 29.3612 116 29.0339 116 20.2843C116 11.5347 115.96 11.2074 114.879 11.2074C113.889 11.2074 113.758 11.5347 113.758 14.0198V16.8321L112.338 15.0025C109.522 11.3742 103.108 10.0868 98.4868 12.2226Z" fill="white"/>
</svg>
