<svg width="145" height="21" viewBox="0 0 145 21" fill="none" xmlns="http://www.w3.org/2000/svg">
<path fill-rule="evenodd" clip-rule="evenodd" d="M126.062 1.05945C125.711 1.50046 123.665 3.95391 121.516 6.51153C119.367 9.06915 117.205 11.6564 116.711 12.2609C116.217 12.8654 114.959 14.3665 113.916 15.5965C112.873 16.8265 112.022 17.9299 112.024 18.0485C112.038 18.841 112.475 18.7144 117.135 16.5678L121.818 14.4113L124.473 11.2647L127.129 8.11797L127.322 6.51153C127.428 5.62799 127.595 3.85888 127.693 2.57999L127.871 0.254883L127.286 0.256236C126.843 0.25742 126.545 0.453067 126.062 1.05945ZM129.294 1.31175C129.298 3.31675 129.803 8.09852 130.03 8.28588C130.155 8.3892 130.912 9.26885 131.712 10.2405C134.578 13.7224 135.004 14.2092 135.414 14.4779C136.069 14.9066 144.299 18.6866 144.577 18.6866C144.714 18.6866 144.894 18.5025 144.977 18.2774C145.088 17.9725 144.812 17.5089 143.893 16.4596C143.215 15.6848 141.532 13.6813 140.154 12.0072C131.381 1.35571 130.416 0.25539 129.847 0.255221C129.33 0.254883 129.292 0.327933 129.294 1.31175ZM0 12.2526V19.884L2.0356 19.8348L4.0712 19.7858L4.13832 16.5306C4.17508 14.7402 4.30462 13.2755 4.42602 13.2755C4.54766 13.2755 4.68386 13.3463 4.72926 13.4331C4.77441 13.5198 6.64347 15.0006 8.88263 16.7239L12.9538 19.857L15.6063 19.8636C17.065 19.8673 18.2587 19.8231 18.2587 19.7656C18.2587 19.708 17.2856 18.9281 16.0961 18.0324C12.7828 15.5375 10.6098 13.8274 10.6098 13.7151C10.6098 13.6593 11.1373 13.613 11.7818 13.612C14.2337 13.6086 16.8681 12.2467 17.5227 10.6441C18.2383 8.89278 17.33 6.73 15.4775 5.77375C13.7508 4.88243 12.6962 4.76018 6.10681 4.68797L0 4.62118V12.2526ZM54.7888 4.77151C54.7957 4.8449 54.7505 8.23921 54.6881 12.3145C54.5618 20.5814 54.4868 20.2342 56.2487 19.5555L57.1878 19.1938L58.8578 19.7293C60.3274 20.2007 60.7818 20.2648 62.6484 20.2641C65.9103 20.2631 68.1369 19.4597 69.4792 17.7995C70.1698 16.9454 70.2006 16.8118 70.2811 14.3369C70.3793 11.3214 70.1084 10.5212 68.5897 9.33869C67.1643 8.22906 65.5321 7.78298 62.9186 7.78924C61.4253 7.79279 60.5938 7.87734 60.0318 8.08296C59.5972 8.24175 59.1847 8.37161 59.1146 8.37161C59.0448 8.37161 58.956 7.55352 58.9175 6.55381L58.8474 4.736L56.8118 4.68696C55.6921 4.6599 54.7819 4.69795 54.7888 4.77151ZM90.4395 6.55381C90.3509 7.50701 90.3124 10.9064 90.3541 14.1076L90.4301 19.9282L92.5274 19.9141L94.6247 19.9001L94.748 17.3278L94.8714 14.7556L97.8323 17.0088C99.4608 18.248 100.961 19.4041 101.167 19.5778C101.484 19.846 101.921 19.8969 104.059 19.915C105.444 19.9266 106.638 19.8948 106.712 19.8441C106.786 19.7935 105.65 18.8464 104.189 17.7397C102.727 16.6329 100.957 15.2815 100.256 14.7363L98.9816 13.7452L102.415 11.0691C104.304 9.59707 105.96 8.3454 106.097 8.28774C106.233 8.22991 106.345 8.07299 106.345 7.93889C106.345 7.74324 105.868 7.69522 103.93 7.69522H101.515L100.391 8.49844C99.7736 8.94029 98.2789 10.0946 97.0698 11.0637L94.8714 12.8255L94.8053 8.82311L94.7391 4.82054H92.67H90.6008L90.4395 6.55381ZM10.8694 7.37478C13.2864 7.72989 14.4451 9.07828 13.4579 10.3866C12.808 11.248 11.8842 11.4154 7.78019 11.4154H4.19457V9.41445C4.19457 8.31378 4.2686 7.36261 4.35915 7.30071C4.62711 7.1169 9.49232 7.17237 10.8694 7.37478ZM23.5585 7.99977C21.8347 8.40831 20.9164 8.89988 19.9516 9.93003L19.1223 10.8158V13.8768V16.9376L19.8677 17.764C20.7997 18.7969 22.3423 19.6153 23.9895 19.9505C25.6054 20.2794 28.6652 20.2819 30.268 19.9557C31.9649 19.6104 33.6459 18.5716 34.1505 17.5569C34.7703 16.3103 34.7814 16.3192 32.6094 16.3192C30.7956 16.3192 30.6576 16.3451 30.3993 16.7339C29.9372 17.429 28.7694 17.7248 26.8569 17.6309C25.8748 17.5828 24.9163 17.429 24.5378 17.2591C23.7948 16.9255 23.1935 16.0536 23.1935 15.3101V14.7974H28.8952H34.5968L34.5031 12.895C34.4182 11.1722 34.341 10.9072 33.6839 10.0883C32.4199 8.51281 30.0166 7.69116 26.7009 7.7008C25.5541 7.70401 24.3048 7.82289 23.5585 7.99977ZM41.8224 7.93179C39.4512 8.44568 38.2994 9.1033 37.35 10.4853C36.818 11.2595 36.7689 11.553 36.7667 13.961C36.7645 16.453 36.7978 16.6372 37.4028 17.4693C38.7295 19.294 41.2275 20.2085 44.8849 20.2085C49.0679 20.2085 51.6174 19.0727 52.1919 16.9534L52.3638 16.3192H50.4943C48.8614 16.3192 48.5907 16.3632 48.3538 16.6666C47.6008 17.6308 44.5471 18.0129 42.686 17.3758C41.7022 17.0391 40.9598 16.1667 40.9593 15.3469L40.9588 14.7974H46.6597H52.3609L52.273 12.8064C52.1889 10.8915 52.1546 10.7825 51.3754 9.95049C50.4336 8.94486 49.2095 8.33813 47.3651 7.96273C45.8104 7.64635 43.2063 7.63181 41.8224 7.93179ZM77.723 7.93669C76.1789 8.23025 75.2608 8.58721 74.358 9.24501C72.8637 10.3333 72.6831 10.7611 72.5829 13.4446C72.4776 16.2726 72.7408 17.3431 73.7853 18.3312C76.3711 20.7775 83.6445 20.9615 86.4882 18.6526C87.884 17.5195 88.0747 16.9791 88.0806 14.1406C88.0838 12.6243 87.9649 11.2624 87.7959 10.8755C87.4534 10.0924 85.8832 8.81229 84.7884 8.42421C82.8088 7.72228 79.9042 7.52172 77.723 7.93669ZM28.926 10.5121C29.6976 10.7782 30.349 11.5363 30.349 12.1679V12.5991H26.7713H23.1935V12.1168C23.1935 11.8515 23.4469 11.376 23.7563 11.0599C24.6547 10.1429 27.1039 9.88336 28.926 10.5121ZM46.6419 10.4882C47.4591 10.7779 48.1142 11.5251 48.1142 12.1679V12.5991H44.5365C41.2193 12.5991 40.9588 12.5763 40.9588 12.2861C40.9588 11.6301 41.5463 10.864 42.2865 10.5547C43.2416 10.1554 45.6012 10.1194 46.6419 10.4882ZM64.9249 10.8437C65.9261 11.4646 66.1262 11.9881 66.1257 13.9857C66.1255 15.4661 66.0283 16.0298 65.6939 16.4883C64.6001 17.9889 60.7589 18.0735 59.4707 16.6253C59.0453 16.1473 58.9725 15.7732 58.9718 14.062C58.9705 11.3034 59.4388 10.6719 61.6849 10.4043C62.8614 10.2643 64.3068 10.4602 64.9249 10.8437ZM82.3901 10.647C83.566 11.0638 83.8915 11.8047 83.8905 14.062C83.8898 15.7732 83.817 16.1473 83.3916 16.6253C82.1034 18.0735 78.2621 17.9889 77.1683 16.4883C76.8379 16.0353 76.7368 15.4707 76.7365 14.0821C76.7358 11.1844 77.4748 10.414 80.2644 10.4054C81.0513 10.4028 82.0079 10.5116 82.3901 10.647ZM118.127 17.6818C115.446 18.6075 113.254 19.4073 113.254 19.4596C113.254 19.5117 113.368 19.7016 113.509 19.8815C113.757 20.1992 114.184 20.2085 128.551 20.2085C143.288 20.2085 143.339 20.2073 143.614 19.8558C143.765 19.6618 143.852 19.4827 143.808 19.4577C143.763 19.4327 141.505 18.6401 138.791 17.6964L133.856 15.9804L128.428 15.9898L123 15.9991L118.127 17.6818Z" fill="white"/>
</svg>
