<svg width="120" height="28" viewBox="0 0 120 28" fill="none" xmlns="http://www.w3.org/2000/svg">
<path fill-rule="evenodd" clip-rule="evenodd" d="M104.813 0.968876C97.9438 1.36047 91.7172 1.69186 90.9767 1.70551C90.0951 1.72134 89.6298 1.89821 89.6298 2.2175C89.6298 2.62212 90.0672 2.67425 92.2011 2.52252C95.54 2.28514 117.919 1.10913 119.094 1.10913C119.59 1.10913 119.996 0.899681 119.996 0.643688C119.996 0.079884 120.651 0.0659196 104.813 0.968876ZM0 16.4687V27.4841H13.9587H27.9175V25.4672V23.4503H17.6321H7.3467V14.4518V5.45325H3.67335H0V16.4687ZM31.8357 16.4687V27.4841H35.2642H38.6926V16.4687V5.45325H35.2642H31.8357V16.4687ZM44.57 16.4687V27.4841H47.7536H50.9372L50.9533 19.6492L50.97 11.8143L51.9118 13.5209C52.4295 14.4595 54.5846 17.9503 56.6999 21.2782L60.5466 27.329H64.1612H67.7758L71.6225 21.2782C73.7379 17.9503 75.8929 14.4595 76.4106 13.5209L77.3525 11.8143L77.3691 19.6492L77.3853 27.4841H80.8138H84.2422V18.3761C84.2422 13.3664 84.0997 8.40446 83.9258 7.34945L83.6094 5.43122L79.2406 5.51965L74.8722 5.60839L69.9685 13.5209C67.2713 17.8728 64.8969 21.5435 64.6922 21.6779C64.4874 21.8123 62.0253 18.2181 59.2203 13.6906L54.1207 5.45852L49.3454 5.45604L44.57 5.45325V16.4687ZM89.6298 16.4687V27.4841H104.813H119.996V25.4672V23.4503H108.241H96.4867V20.8128V18.1753H107.752H119.017V16.3135V14.4518H107.752H96.4867V11.8143V9.17678H108.241H119.996V7.31501V5.45325H104.813H89.6298V16.4687Z" fill="white"/>
</svg>
