<svg width="181" height="99" viewBox="0 0 181 99" fill="none" xmlns="http://www.w3.org/2000/svg">
<path d="M11.62 98.336C8.78267 98.336 6.412 97.3653 4.508 95.424C2.604 93.464 1.652 91.056 1.652 88.2C1.652 85.3627 2.604 82.964 4.508 81.004C6.412 79.044 8.82933 78.064 11.76 78.064C13.4587 78.064 14.896 78.3253 16.072 78.848C17.2667 79.3707 18.3867 80.1267 19.432 81.116L17.22 83.664C15.4653 82.04 13.636 81.228 11.732 81.228C9.86533 81.228 8.316 81.9 7.084 83.244C5.87067 84.588 5.264 86.24 5.264 88.2C5.264 90.1413 5.88 91.7933 7.112 93.156C8.344 94.5 9.884 95.172 11.732 95.172C12.852 95.172 13.8413 94.9667 14.7 94.556C15.5587 94.1267 16.4453 93.4827 17.36 92.624L19.572 94.864C18.4707 96.0213 17.304 96.8893 16.072 97.468C14.84 98.0467 13.356 98.336 11.62 98.336ZM23.1919 98V78.4H31.9839C34.2425 78.4 35.9505 78.9787 37.1079 80.136C37.9852 81.0133 38.4239 82.1147 38.4239 83.44C38.4239 85.3813 37.4905 86.8373 35.6239 87.808C38.2185 88.6853 39.5159 90.2907 39.5159 92.624C39.5159 94.3413 38.8625 95.6667 37.5559 96.6C36.2492 97.5333 34.4852 98 32.2639 98H23.1919ZM26.5799 86.66H31.2839C32.4225 86.66 33.3185 86.436 33.9719 85.988C34.6439 85.5213 34.9799 84.84 34.9799 83.944C34.9799 83.16 34.6812 82.5533 34.0839 82.124C33.4865 81.676 32.6372 81.452 31.5359 81.452H26.5799V86.66ZM26.5799 94.948H32.2919C33.4865 94.948 34.4105 94.7147 35.0639 94.248C35.7359 93.7813 36.0719 93.1 36.0719 92.204C36.0719 90.4493 34.7279 89.572 32.0399 89.572H26.5799V94.948ZM43.5949 98V78.4H47.0389V98H43.5949ZM57.1016 98V81.592H50.8856V78.4H66.7896V81.592H60.5736V98H57.1016ZM68.7619 98L77.3859 78.26H80.5779L89.2019 98H85.5619L83.5739 93.268H74.3059L72.2899 98H68.7619ZM75.5659 90.216H82.3139L78.9259 82.376L75.5659 90.216ZM92.563 98V78.4H96.007V86.548H105.359V78.4H108.803V98H105.359V89.74H96.007V98H92.563ZM112.156 98L120.78 78.26H123.972L132.596 98H128.956L126.968 93.268H117.7L115.684 98H112.156ZM118.96 90.216H125.708L122.32 82.376L118.96 90.216ZM135.958 98V78.4H139.402V88.256L148.726 78.4H152.954L144.806 86.828L153.318 98H149.146L142.454 89.18L139.402 92.316V98H135.958Z" fill="white"/>
<ellipse cx="78.0001" cy="18.6052" rx="8.14" ry="7.57991" fill="white"/>
<ellipse cx="78.0001" cy="49.614" rx="8.14" ry="7.57991" fill="white"/>
<ellipse cx="62.8301" cy="48.5803" rx="7.77" ry="7.23537" fill="white"/>
<ellipse cx="93.1699" cy="48.5803" rx="7.77" ry="7.23537" fill="white"/>
<ellipse cx="92.4299" cy="18.9497" rx="7.77" ry="7.23537" fill="white"/>
<ellipse cx="63.57" cy="18.9497" rx="7.77" ry="7.23537" fill="white"/>
<ellipse cx="78.0001" cy="61.3283" rx="7.4" ry="6.89083" fill="white"/>
<ellipse cx="77.6301" cy="5.16812" rx="5.55" ry="5.16812" fill="white"/>
<ellipse cx="106.12" cy="19.2943" rx="4.44" ry="4.1345" fill="white"/>
<ellipse cx="91.3199" cy="6.89084" rx="4.44" ry="4.1345" fill="white"/>
<ellipse cx="64.68" cy="6.89084" rx="4.44" ry="4.1345" fill="white"/>
<ellipse cx="49.8799" cy="19.2943" rx="4.44" ry="4.1345" fill="white"/>
<ellipse cx="91.3199" cy="61.3283" rx="5.18" ry="4.82358" fill="white"/>
<ellipse cx="63.94" cy="61.3283" rx="5.18" ry="4.82358" fill="white"/>
<ellipse cx="108.34" cy="34.4542" rx="6.66" ry="6.20174" fill="white"/>
<ellipse cx="105.01" cy="49.2694" rx="5.55" ry="5.16812" fill="white"/>
<ellipse cx="50.25" cy="49.2694" rx="5.55" ry="5.16812" fill="white"/>
<ellipse cx="47.66" cy="34.4542" rx="6.66" ry="6.20174" fill="white"/>
<ellipse cx="76.73" cy="33.9917" rx="10.73" ry="9.9917" fill="white"/>
<ellipse cx="61.3501" cy="34.7986" rx="9.25" ry="8.61353" fill="white"/>
<ellipse cx="93.9099" cy="34.7986" rx="9.25" ry="8.61353" fill="white"/>
</svg>
