<svg width="125" height="31" viewBox="0 0 125 31" fill="none" xmlns="http://www.w3.org/2000/svg">
<path fill-rule="evenodd" clip-rule="evenodd" d="M97.9205 0.554894C97.6567 0.610435 97.0092 0.703005 96.4817 0.760663C95.2793 0.892058 92.9038 1.27736 92.5735 1.39436C92.4368 1.44282 91.8214 1.6087 91.2059 1.76295C90.5904 1.9172 89.7569 2.18158 89.3534 2.35053C88.95 2.51937 88.5748 2.65754 88.5195 2.65754C88.1729 2.65754 85.4923 3.9752 84.4233 4.671C83.6572 5.16971 82.7491 5.88339 82.6777 6.04293C82.6387 6.13021 82.6169 6.43246 82.6295 6.71461C82.642 6.99677 82.5514 7.35382 82.4281 7.50807C81.9498 8.10622 81.007 9.64393 81.0863 9.6964C81.1322 9.72687 81.4766 9.33385 81.8515 8.82297C82.2263 8.3122 82.7399 7.73795 82.9926 7.54679C83.2454 7.35572 83.4522 7.12954 83.4522 7.04427C83.4522 6.959 83.5613 6.88928 83.6944 6.88928C83.8276 6.88928 84.0641 6.75058 84.2198 6.581C84.5467 6.22532 85.987 5.40817 86.287 5.40817C86.6707 5.40817 86.4875 5.63944 85.5467 6.34286C85.0281 6.7307 84.4567 7.21459 84.277 7.41825C83.2705 8.55923 82.1947 9.96946 82.0913 10.284C82.026 10.4826 81.8738 10.7389 81.7531 10.8537C81.6326 10.9684 81.5338 11.2422 81.5338 11.462C81.5338 11.8697 81.3261 11.9958 81.1512 11.6942C81.0978 11.6022 81.0542 11.4117 81.0542 11.271C81.0542 10.9312 80.8606 10.9485 80.1703 11.3495C79.4157 11.7879 78.8779 12.509 78.6349 13.4084C78.5266 13.8086 78.3073 14.2497 78.1474 14.3885C77.7596 14.7252 77.7797 14.9479 78.278 15.8266C78.6846 16.5437 79.1583 17.0832 78.8836 16.5165C78.8131 16.371 78.7457 16.1453 78.7337 16.0147C78.7215 15.8843 78.6633 15.7454 78.604 15.7062C78.4312 15.5919 78.4791 15.1217 78.6561 15.1941C78.7441 15.23 78.816 15.3479 78.816 15.4559C78.816 15.6749 79.9437 17.3969 80.1212 17.4487C80.1834 17.4668 80.4622 17.7168 80.7408 18.0042C81.0195 18.2915 81.3074 18.5266 81.3808 18.5266C81.4542 18.5266 81.5638 18.7458 81.6246 19.0137C81.6853 19.2818 81.932 19.951 82.1728 20.5009C82.5002 21.2484 82.5546 21.4865 82.3883 21.4442C82.2139 21.3999 82.2014 21.4317 82.3303 21.5911C82.4207 21.7029 82.5715 21.8257 82.6654 21.8641C82.7592 21.9025 83.0839 22.2941 83.387 22.7342C84.5352 24.4015 86.6026 26.0796 88.6722 27.0241C91.2214 28.1877 94.7587 28.9487 98.9138 29.2275C100.784 29.3529 101.18 29.4777 100.079 29.5943C99.727 29.6315 99.4392 29.6916 99.4394 29.7278C99.4394 29.7639 99.7452 29.892 100.119 30.0121C100.492 30.1323 101.183 30.3677 101.653 30.5351C102.717 30.9137 103.919 30.985 105.394 30.757C106.855 30.5312 107.647 30.1789 108.23 29.4954C108.627 29.0296 108.849 28.8944 109.549 28.6931C110.722 28.3555 112.594 27.594 114.997 26.4759C117.023 25.5336 117.049 25.5251 117.355 25.7275C117.525 25.84 117.72 25.9321 117.788 25.9321C117.855 25.9321 118.341 26.1459 118.867 26.4073C119.392 26.6686 120.074 26.9374 120.382 27.0044C120.891 27.1153 121.221 27.2538 122.829 28.0301C123.41 28.3107 124.205 28.2909 124.719 27.9832C125.119 27.7432 125.096 27.4506 124.622 26.7397C124.403 26.413 124.141 25.9191 124.038 25.6421C123.636 24.5549 122.688 23.7204 121.142 23.0908C120.472 22.8183 120.433 22.7118 120.793 22.1466C121.738 20.6627 122.029 19.8516 122.129 18.4208L122.23 16.9926L122.505 17.3859C122.656 17.6022 122.78 17.9473 122.78 18.1529C122.78 18.3585 122.845 18.5266 122.923 18.5266C123.087 18.5266 123.26 18.2695 123.26 18.0263C123.26 17.7346 122.597 16.6452 122.284 16.4229C122.078 16.277 121.981 16.0526 121.981 15.7241C121.981 14.5909 121.285 14.1835 119.706 14.3926C118.955 14.4919 118.724 14.4867 118.427 14.364C118.227 14.2816 117.579 14.1865 116.987 14.1527C115.999 14.0965 115.873 14.1131 115.468 14.3527L115.027 14.6139L115.477 14.5073C116.006 14.3817 117.13 14.379 117.585 14.5022C117.882 14.5828 117.872 14.5972 117.454 14.7064C117.207 14.7709 116.934 14.8238 116.848 14.8238C116.763 14.8238 116.39 14.9286 116.019 15.0567C115.649 15.185 114.987 15.3158 114.547 15.3477C113.844 15.3987 113.741 15.4375 113.694 15.6701C113.665 15.8156 113.468 16.0554 113.257 16.2031C113.046 16.3508 112.688 16.7728 112.463 17.1409C112.085 17.7563 111.567 18.3079 110.69 19.0309L110.35 19.311L109.651 19.1123C109.266 19.0031 107.908 18.582 106.633 18.1765C103.811 17.2792 102.818 17.0455 101.824 17.0455C100.896 17.0455 100.501 17.2492 100.713 17.6182C100.913 17.967 102.142 19.2141 102.942 19.8803C103.663 20.4808 105.169 21.2707 106.274 21.6284C106.647 21.7494 106.953 21.8849 106.953 21.9294C106.953 22.0165 105.43 22.5934 103.351 23.2935C102.385 23.6189 101.673 23.7698 100.473 23.9033C98.3831 24.1359 95.862 24.1291 95.1335 23.8886C94.8368 23.7906 94.4431 23.7097 94.2588 23.7089C93.8152 23.7066 93.4577 23.5497 93.5853 23.4132C93.6806 23.3111 92.1017 22.7583 91.7148 22.7583C91.5575 22.7583 91.3397 22.6724 89.9458 22.0611C89.6923 21.95 89.3511 21.8072 89.1876 21.7439C89.0239 21.6805 88.7334 21.5377 88.542 21.4265C88.2304 21.2454 88.2047 21.2436 88.2961 21.4094C88.5761 21.9174 87.503 21.2418 86.7107 20.4111C86.2941 19.9742 85.8573 19.276 85.7636 18.8968C85.5584 18.0657 85.4997 17.6802 85.5787 17.6802C85.6775 17.6802 87.0509 19.0546 87.9158 20.0188C88.4931 20.6624 89.3246 21.1783 91.0111 21.9394C92.9265 22.8037 93.7249 23.0082 96.2418 23.2794C96.7255 23.3315 97.265 23.4093 97.4409 23.4521C97.6647 23.5066 97.7127 23.496 97.6007 23.4168C97.5128 23.3545 97.0812 23.2578 96.6415 23.2019C94.4236 22.9197 93.1041 22.6083 91.9407 22.0923C89.2977 20.9204 88.8699 20.6288 87.0736 18.7758C86.0381 17.7077 85.7889 17.3276 85.9115 17.0042C85.9689 16.8529 86.5676 16.1937 87.2421 15.5393C88.7561 14.0702 89.0963 13.5252 89.1081 12.5492C89.1198 11.5771 88.7038 10.9948 87.6124 10.4557C86.7435 10.0264 86.6391 10.0847 87.0658 10.7605C87.4343 11.3441 87.3139 12.345 86.8199 12.8041C86.473 13.1265 85.4126 13.5463 84.931 13.5519C84.3127 13.5591 85.2589 10.6199 86.0883 9.95729C86.1975 9.87001 86.3308 9.67567 86.3846 9.52544C86.5059 9.18669 88.6496 7.75361 89.75 7.27585C90.8079 6.81649 92.4694 6.26901 94.1237 5.83462C95.1996 5.55216 95.4871 5.51259 95.6825 5.61986C95.8786 5.72756 95.9221 5.72037 95.9221 5.57977C95.9221 5.38722 96.2519 5.35136 96.502 5.51682C96.6703 5.62822 98.2298 5.46741 98.56 5.3046C98.8975 5.13819 99.6337 5.08391 99.861 5.20875C100.036 5.30492 100.137 5.30597 100.277 5.2133C100.68 4.94702 103.925 5.20515 105.594 5.63626C107.727 6.18713 110.606 7.32282 111.673 8.03481C112.158 8.35833 112.669 8.63413 112.809 8.64778C113.187 8.68449 113.751 9.06736 114.816 10.0102C115.551 10.6612 115.744 10.7833 115.655 10.5392C115.591 10.3646 115.302 10.0461 115.012 9.8314C114.538 9.47995 113.987 8.89692 113.987 8.74596C113.987 8.57362 114.469 8.72755 114.716 8.9787C115.167 9.4388 116.262 10.2747 116.413 10.2747C116.554 10.2747 114.736 8.6518 114.012 8.13161C113.741 7.93674 113.659 7.80482 113.766 7.73393C113.959 7.60635 115.802 8.93332 116.656 9.81394C116.815 9.97856 116.825 9.95803 116.715 9.68667C116.565 9.31153 116.151 8.75579 115.725 8.3541C115.365 8.01577 115.354 7.94721 115.659 7.94721C115.788 7.94721 116.237 8.261 116.659 8.64439C117.08 9.02789 117.685 9.51761 118.002 9.73269C118.32 9.94788 118.703 10.2812 118.854 10.4736C119.004 10.6659 119.163 10.7995 119.207 10.7704C119.298 10.7101 118.227 9.35564 117.888 9.10259C117.625 8.90592 117.599 8.71993 117.828 8.66947C117.917 8.64958 117.63 8.31601 117.188 7.92796C116.42 7.25279 116.198 6.93615 116.548 7.01327C116.781 7.06458 117.877 8.00783 118.472 8.66756C118.75 8.97648 119.007 9.20975 119.043 9.18595C119.131 9.12819 118.151 8.05861 117.569 7.57535C117.314 7.36376 116.688 6.92387 116.179 6.59792C115.572 6.20903 115.286 5.94952 115.348 5.8434C115.411 5.73486 115.089 5.47027 114.37 5.03885C112.931 4.17568 113.053 3.88559 114.511 4.70401C115.097 5.03313 115.678 5.30238 115.802 5.30238C116.258 5.30238 118.863 7.30156 119.857 8.41323C120.112 8.69888 120.207 8.75632 120.137 8.58197C119.998 8.23942 118.835 7.0138 118.346 6.69462C117.967 6.44696 117.932 6.24828 118.257 6.17676C118.638 6.09276 120.59 8.37631 121.18 9.59611C121.368 9.98607 121.661 10.31 121.661 10.1287C121.661 9.8333 120.605 8.16293 119.921 7.37604C119.471 6.85892 119.103 6.40358 119.103 6.36433C119.103 6.29112 116.643 4.54659 115.405 3.74192C115.025 3.49458 114.617 3.2923 114.498 3.2923C114.38 3.2923 113.875 3.08558 113.376 2.83295C112.378 2.32757 109.23 1.28222 108.707 1.28222C108.525 1.28222 108.171 1.21208 107.921 1.12639C107.273 0.904752 106.015 0.716652 105.327 0.738445C105.004 0.748813 104.113 0.684914 103.347 0.596576C101.818 0.420007 98.6764 0.395992 97.9205 0.554894ZM3.15744 2.21014L0 2.23881V14.5024V26.766L1.93235 26.7987C2.99517 26.8167 3.89444 26.8116 3.93073 26.7872C4.10499 26.671 3.94144 18.1274 3.58333 8.63487C3.4767 5.80828 3.57773 5.23858 3.93377 6.6595C4.03113 7.04776 4.26869 7.91283 4.46182 8.58197C4.86053 9.96396 5.0276 10.5568 5.83398 13.4485C6.15053 14.5831 6.55116 16.0113 6.72462 16.6223C6.89808 17.2332 7.13996 18.0902 7.26226 18.5266C8.94426 24.5272 9.63825 26.7924 9.79205 26.7846C9.85791 26.7812 11.3148 26.7785 13.0294 26.7785H16.1469V14.5127V2.24685L14.2078 2.21416C12.6766 2.18835 12.251 2.21204 12.1847 2.32683C12.0852 2.49885 12.2855 15.3177 12.4574 19.7961C12.5234 21.5126 12.538 22.9884 12.4899 23.0757C12.4416 23.163 12.314 22.9011 12.2061 22.4938C12.0158 21.7752 11.0865 18.4419 10.628 16.8339C10.111 15.0208 9.1321 11.5426 8.39462 8.89936C7.18041 4.54616 6.50832 2.28927 6.40984 2.23437C6.35756 2.20527 4.89395 2.19438 3.15744 2.21014ZM25.5789 2.2167C25.358 2.26557 25.3583 26.777 25.5792 26.7824C25.6672 26.7845 26.5485 26.7881 27.5376 26.7902L29.3362 26.7941V14.5068V2.21955L27.5373 2.20051C26.5479 2.19004 25.6667 2.19734 25.5789 2.2167ZM40.7269 2.2113L38.8485 2.24103V14.5036V26.766L40.7875 26.7987C42.3267 26.8246 42.7442 26.8011 42.8113 26.6847C42.858 26.6041 42.849 24.1047 42.7917 21.1306L42.6873 15.723L43.2171 16.5165C43.5085 16.9529 45.1395 19.4285 46.8418 22.0177C48.5439 24.607 49.9556 26.7427 49.9789 26.7636C50.0359 26.8147 53.928 26.7795 54.007 26.7271C54.0412 26.7046 52.3252 24.0528 50.1938 20.8343C48.0624 17.6158 46.285 14.9015 46.2439 14.8026C46.203 14.7036 46.687 13.8229 47.32 12.8455C47.9527 11.8679 48.9727 10.2826 49.5868 9.32253C51.6147 6.15105 52.9375 4.08871 53.0809 3.87416C53.4643 3.30098 54.0361 2.3372 54.0363 2.26399C54.0363 2.2186 53.1551 2.19025 52.0779 2.20104L50.1193 2.22072L49.8488 2.57132C49.5684 2.93482 49.311 3.33335 45.2326 9.71926C43.0233 13.1785 42.3133 14.1239 42.5752 13.2577C42.736 12.7256 42.9015 2.26907 42.7498 2.22421C42.6703 2.20072 41.76 2.1949 40.7269 2.2113ZM61.9358 2.22559C61.8495 2.28314 61.8495 26.7297 61.9358 26.7872C61.9721 26.8116 62.8811 26.8165 63.9559 26.7985L65.9102 26.7655L65.8018 21.7204C65.7423 18.9455 65.6585 16.4609 65.6157 16.1991C65.5533 15.8173 65.5751 15.7565 65.7257 15.8917C65.8289 15.9845 67.5066 18.4775 69.4538 21.4318L72.9943 26.8032L74.9814 26.785C76.0742 26.7751 76.9906 26.7522 77.0176 26.7342C77.0448 26.7163 75.2766 23.9938 73.0883 20.6841C70.3979 16.6151 69.1515 14.6151 69.2393 14.5073C69.3106 14.4194 69.8073 13.6574 70.343 12.8137C70.8788 11.97 71.3809 11.1845 71.4588 11.0681C71.5368 10.9517 72.1098 10.0594 72.7323 9.08502C73.3548 8.11077 74.3611 6.53974 74.9687 5.59384C76.51 3.19423 77.0574 2.32471 77.0574 2.27615C77.0574 2.2532 76.1401 2.23574 75.0191 2.23733L72.9807 2.24029L72.0397 3.74488C71.5222 4.5724 71.0054 5.3923 70.8911 5.56686C70.7768 5.74142 70.2423 6.57454 69.7034 7.41825C69.1643 8.26195 68.6607 9.04747 68.5843 9.16384C68.5079 9.28021 68.0056 10.0657 67.4681 10.9094C66.9308 11.7531 66.4257 12.5387 66.3458 12.655C66.2659 12.7714 66.0886 13.0525 65.9516 13.2796C65.8146 13.5067 65.6665 13.6687 65.6226 13.6396C65.5786 13.6106 65.6146 11.7823 65.7026 9.57686C65.7907 7.37138 65.8635 4.81985 65.8646 3.90686L65.8665 2.24685L63.9342 2.21416C62.8713 2.19617 61.9721 2.20136 61.9358 2.22559ZM111.833 3.58926C111.784 3.62185 111.655 3.58937 111.547 3.517C111.39 3.41248 111.408 3.40042 111.636 3.45776C111.794 3.49754 111.883 3.55668 111.833 3.58926ZM98.0804 5.78353L97.4409 5.931L98.0004 5.88265C98.3082 5.8561 99.3873 5.80564 100.398 5.77051C103.55 5.66102 105.842 6.08821 109.471 7.4613C110.021 7.66929 110.47 7.80418 110.469 7.76102C110.468 7.66189 109.89 7.443 107.593 6.67135C105.181 5.86139 103.579 5.61669 100.76 5.6279C99.458 5.63309 98.4885 5.68937 98.0804 5.78353ZM94.6756 6.33778C93.858 6.55201 93.2612 6.74318 93.3495 6.76264C93.4376 6.782 93.7468 6.72869 94.0364 6.64405C94.9247 6.38464 96.4557 6.05245 96.9613 6.00961C97.3418 5.97723 97.3088 5.96676 96.8014 5.95861C96.4094 5.95237 95.5865 6.09911 94.6756 6.33778ZM81.7736 6.88928C81.7192 6.94747 81.787 6.99507 81.924 6.99507C82.061 6.99507 82.1733 6.94747 82.1733 6.88928C82.1733 6.83109 82.1057 6.78349 82.0228 6.78349C81.94 6.78349 81.8279 6.83109 81.7736 6.88928ZM91.9254 7.15376C91.4417 7.35477 91.1011 7.52034 91.1684 7.52161C91.3198 7.52457 93.0444 6.88537 93.0444 6.82633C93.0444 6.72477 92.75 6.81099 91.9254 7.15376ZM81.3739 7.52404C81.3739 7.58223 81.4415 7.62983 81.5244 7.62983C81.6072 7.62983 81.7192 7.58223 81.7736 7.52404C81.8279 7.46585 81.7602 7.41825 81.6232 7.41825C81.4862 7.41825 81.3739 7.46585 81.3739 7.52404ZM81.0542 8.15256C81.0542 8.40805 81.1431 8.43376 81.2698 8.21508C81.3194 8.12971 81.2911 8.03164 81.207 7.99726C81.1229 7.96287 81.0542 8.0328 81.0542 8.15256ZM111.43 8.25211C111.43 8.3103 111.501 8.38732 111.589 8.42329C111.677 8.45926 111.749 8.44106 111.749 8.38287C111.749 8.32469 111.677 8.24767 111.589 8.2117C111.501 8.17573 111.43 8.19393 111.43 8.25211ZM112.881 9.18658C112.874 9.25725 112.999 9.36157 113.16 9.41827C113.32 9.47508 113.659 9.72 113.913 9.96269C114.167 10.2054 114.4 10.3553 114.43 10.2958C114.517 10.1218 113.613 9.33099 113.321 9.32655C113.175 9.32433 113.019 9.26307 112.974 9.19029C112.913 9.09063 112.89 9.08968 112.881 9.18658ZM82.9726 10.9094C82.9726 10.9676 82.8964 11.0152 82.8033 11.0152C82.7103 11.0152 82.6785 10.9676 82.7328 10.9094C82.7872 10.8512 82.8633 10.8036 82.9021 10.8036C82.941 10.8036 82.9726 10.8512 82.9726 10.9094ZM117.987 11.1739C117.985 11.3037 118.586 11.9674 118.705 11.9674C118.753 11.9674 118.685 11.8364 118.554 11.6764C118.196 11.239 117.989 11.0559 117.987 11.1739ZM82.8103 11.5769C82.8116 11.624 82.7408 11.6331 82.6529 11.5971C82.565 11.5611 82.4941 11.4512 82.4954 11.3528C82.4977 11.1987 82.5194 11.1958 82.6529 11.3326C82.7381 11.4199 82.8089 11.5298 82.8103 11.5769ZM82.4622 12.1288C82.4129 12.1614 82.3236 12.1027 82.2634 11.9984C82.1768 11.8476 82.195 11.8354 82.353 11.9391C82.4623 12.011 82.5114 12.0963 82.4622 12.1288ZM78.4472 14.9011C78.4066 15.0041 78.3708 14.9455 78.3676 14.7709C78.3644 14.5963 78.3975 14.5121 78.4413 14.5837C78.4851 14.6554 78.4878 14.7982 78.4472 14.9011ZM77.0574 15.0061C77.0574 15.0753 77.2373 15.3072 77.4571 15.5215C77.6769 15.7358 77.8568 15.8544 77.8568 15.785C77.8568 15.7157 77.6769 15.4837 77.4571 15.2697C77.2373 15.0556 77.0574 14.937 77.0574 15.0061ZM79.1357 17.2238C79.1357 17.4711 79.9811 19.0115 80.199 19.1613C80.353 19.2671 80.3245 19.1613 80.1138 18.8439C79.94 18.5821 79.7111 18.1298 79.605 17.8389C79.4232 17.3404 79.1357 16.9637 79.1357 17.2238ZM86.17 19.2546C86.17 19.3128 86.242 19.3898 86.3299 19.4258C86.4178 19.4618 86.4898 19.4436 86.4898 19.3854C86.4898 19.3272 86.4178 19.2502 86.3299 19.2142C86.242 19.1783 86.17 19.1964 86.17 19.2546ZM91.2059 28.2596C91.1516 28.3178 91.1791 28.3654 91.267 28.3654C91.3549 28.3654 91.4713 28.3178 91.5257 28.2596C91.58 28.2014 91.5525 28.1538 91.4646 28.1538C91.3767 28.1538 91.2603 28.2014 91.2059 28.2596Z" fill="white"/>
</svg>
