<svg width="146" height="27" viewBox="0 0 146 27" fill="none" xmlns="http://www.w3.org/2000/svg">
<path fill-rule="evenodd" clip-rule="evenodd" d="M15.498 4.96572L10.509 9.07963L15.6831 13.3459L20.8576 17.6122L25.954 13.4264C28.7571 11.1238 31.0504 9.10432 31.0504 8.93824C31.0504 8.46559 21.5967 0.851807 21.0098 0.851807C20.7221 0.851807 18.2419 2.70307 15.498 4.96572ZM22.1763 7.10435C24.935 8.27849 23.1961 11.7217 20.1607 11.0945C19.6301 10.9851 18.9606 10.4954 18.6374 9.98073C18.1519 9.20823 18.136 8.93153 18.5377 8.24161C18.8007 7.79061 19.4324 7.24788 19.9415 7.03609C21.0839 6.5607 20.8843 6.5546 22.1763 7.10435ZM4.75944 13.6954C2.21366 15.8539 0.0726165 17.8423 0.00151987 18.1141C-0.126602 18.6029 7.88436 25.5335 9.34406 26.1972C9.94542 26.4702 10.7453 25.9351 15.1766 22.2957L20.3118 18.0772L15.2255 13.8832C12.4275 11.5763 9.96986 9.70769 9.76323 9.73024C9.55698 9.75279 7.30522 11.5373 4.75944 13.6954ZM94.3708 10.908C93.4251 11.6863 93.3914 13.3782 94.3075 14.0605C95.2225 14.7422 97.4269 14.712 98.2015 14.0075C99.1184 13.1737 99.0002 11.3545 97.9912 10.773C96.8573 10.1194 95.2569 10.1788 94.3708 10.908ZM129.461 10.6256C127.73 11.4556 127.825 13.3739 129.635 14.1443C130.451 14.4917 130.636 14.7066 130.332 14.9564C130.105 15.1432 129.919 15.4745 129.919 15.6924C129.919 16.4106 131.083 16.1056 132.363 15.0524C133.381 14.2144 133.622 13.7799 133.622 12.7788C133.622 10.7925 131.453 9.67051 129.461 10.6256ZM35.5798 18.9073L35.6791 26.2971L41.0483 26.2773C45.8196 26.2599 46.6346 26.1792 48.3643 25.5533C50.8504 24.6537 52.349 23.2394 53.1155 21.0691C54.5104 17.1204 52.2631 13.2609 47.807 11.9524C46.8946 11.6842 44.5402 11.5398 40.9491 11.5309L35.4806 11.5175L35.5798 18.9073ZM46.1728 15.8237C48.3161 16.9253 48.5735 19.788 46.6694 21.3549C45.7974 22.0723 45.1868 22.2637 43.3253 22.4026L41.0483 22.5727V18.8311V15.0896L43.2101 15.2511C44.3991 15.3398 45.7322 15.5976 46.1728 15.8237ZM58.5944 15.7573C56.2308 16.6407 54.9944 18.2028 54.8141 20.5337C54.6867 22.1838 54.8015 22.6598 55.5965 23.7764C56.9766 25.7145 59.0051 26.5497 61.9567 26.3949C63.8085 26.298 64.5721 26.0945 65.6689 25.4061C69.9421 22.7238 68.9867 17.3879 63.9207 15.646C62.1152 15.025 60.4614 15.0597 58.5944 15.7573ZM77.1521 15.5427C76.5411 15.7192 75.7498 16.0724 75.3932 16.3277C74.8018 16.7519 74.7452 16.7349 74.7452 16.1358C74.7452 15.5306 74.5563 15.4791 72.3297 15.4791H69.9143L70.0154 20.8881L70.1165 26.2971H72.3383H74.56L74.7452 22.7991L74.9303 19.301L75.9683 19.0018C77.9186 18.4389 78.2408 18.9354 78.4481 22.8247L78.6333 26.2971H80.855H83.0768L83.1827 22.963C83.2409 21.1294 83.4697 19.4497 83.6908 19.23C84.3277 18.5986 86.1373 18.7376 86.6031 19.4534C86.8257 19.7956 86.9875 21.3385 86.9627 22.8817C86.9379 24.4248 86.9282 25.8656 86.9412 26.0832C86.9586 26.3733 87.5814 26.4544 89.2793 26.3879L91.5936 26.2971V21.6737C91.5936 17.2075 91.5632 17.0241 90.7012 16.2695C89.113 14.8793 86.1406 14.9439 83.8637 16.4176C83.0809 16.9244 82.8917 16.9485 82.6369 16.574C82.2077 15.9432 80.2781 15.174 79.1887 15.2002C78.6796 15.2124 77.7631 15.3666 77.1521 15.5427ZM107.209 15.8947C105.565 16.5798 105.48 16.5865 105.48 16.0325C105.48 15.5114 105.236 15.4596 103.165 15.5406L100.851 15.6314V20.9643V26.2971H103.073H105.295L105.395 22.945C105.477 20.2357 105.614 19.5198 106.114 19.212C106.922 18.7141 108.614 18.7242 109.124 19.23C109.345 19.4497 109.574 21.1294 109.632 22.963L109.738 26.2971H111.96H114.182L114.285 21.9144C114.4 16.9841 114.174 16.3731 111.943 15.6058C110.191 15.0037 109.203 15.0637 107.209 15.8947ZM120.091 15.7472C114.869 17.6993 114.587 23.7559 119.62 25.8693C122.567 27.1062 126.625 26.4117 128.394 24.3672C132.533 19.5835 126.522 13.3432 120.091 15.7472ZM135.659 15.6141C133.739 16.1964 132.511 17.3727 132.511 18.6279C132.511 20.5349 134.301 21.7039 137.974 22.1957C140.304 22.5078 141.157 22.9563 140.284 23.4101C139.275 23.9351 137.72 23.7267 134.665 22.6565C134.2 22.494 133.81 22.7363 133.135 23.6057C132.636 24.2481 132.313 24.8905 132.416 25.0337C132.936 25.7571 135.801 26.4364 138.358 26.4428C142.687 26.4534 144.731 25.2421 144.731 22.6671C144.731 20.7235 143.083 19.7392 139.084 19.2943C137.911 19.1636 137.325 18.9524 137.325 18.6602C137.325 18.0534 139.991 18.08 141.451 18.7013C142.071 18.9649 142.616 19.1365 142.662 19.0822C142.708 19.028 143.109 18.4615 143.553 17.8237L144.36 16.6636L142.666 16.0471C140.412 15.2264 137.525 15.0479 135.659 15.6141ZM93.7943 15.8716C93.6935 16.0876 93.6572 18.5218 93.7132 21.2806L93.8154 26.2971H96.0371H98.2589L98.36 20.8881L98.4611 15.4791H96.2193C94.7315 15.4791 93.9157 15.6113 93.7943 15.8716ZM7.12377 16.1281C8.34797 16.5871 9.03746 17.9471 8.48053 18.8034C7.86584 19.7484 6.40133 20.438 5.50558 20.204C4.41877 19.9199 3.27678 18.8311 3.28641 18.0879C3.29937 17.0981 4.66612 15.9261 5.94549 15.8079C6.0888 15.7948 6.61906 15.9386 7.12377 16.1281ZM15.662 16.7659C16.5467 17.8048 16.3856 18.9963 15.2629 19.7231C14.7263 20.0705 13.999 20.3548 13.6465 20.3548C12.5349 20.3548 11.0545 19.1627 11.0545 18.2674C11.0545 16.8872 12.0046 16.0885 13.6465 16.0885C14.7141 16.0885 15.2347 16.2634 15.662 16.7659ZM145.271 16.7184C144.891 17.2243 145.232 17.2944 145.764 16.8196C146.027 16.5852 146.078 16.3933 145.878 16.3933C145.678 16.3933 145.405 16.5395 145.271 16.7184ZM63.239 19.6341C63.6611 20.0757 64.0066 20.6056 64.0066 20.8119C64.0066 21.546 62.4751 22.7927 61.5727 22.7927C60.4081 22.7927 59.1928 21.7813 59.1928 20.8119C59.1928 19.8425 60.4081 18.8311 61.5727 18.8311C62.1029 18.8311 62.7865 19.1605 63.239 19.6341ZM124.37 19.3827C125.97 20.449 124.992 22.7927 122.948 22.7927C120.799 22.7927 119.755 20.303 121.485 19.3056C122.561 18.6852 123.355 18.7065 124.37 19.3827Z" fill="white"/>
</svg>
