<svg width="200" height="21" viewBox="0 0 200 21" fill="none" xmlns="http://www.w3.org/2000/svg">
<path fill-rule="evenodd" clip-rule="evenodd" d="M165.445 0.991934C164.705 1.08642 163.486 1.29291 162.737 1.45082L161.373 1.73784V6.5372V11.3366L157.691 11.3709L154.009 11.4053L154.702 12.6736L155.395 13.942L158.384 13.9768L161.373 14.0119V17.3062V20.6007H163.369H165.365V17.3209V14.0412L167.313 13.8907L169.262 13.7403L169.895 14.2216C170.831 14.932 173.912 18.0699 175.07 19.4909L176.077 20.7275H178.237H180.397L179.341 19.3504C178.262 17.9425 175.492 15.0336 173.991 13.7326L173.154 13.0068L174.337 12.5866C177.386 11.5027 179.043 9.61189 179.048 7.21119C179.056 3.55231 174.983 1.0277 168.821 0.871569C167.574 0.839988 166.271 0.886408 165.445 0.991934ZM32.3121 10.7611V20.6007H34.4029H36.4938L36.4972 13.8468L36.5006 7.09298L37.4114 8.17107C38.197 9.10075 41.7541 12.9752 46.0097 17.536C46.6826 18.2571 47.5145 19.0681 47.8587 19.3381C48.7666 20.0504 50.6097 20.6188 52.2683 20.698L53.6006 20.7617V10.915V1.06841H51.6048H49.609V8.64212V16.2158L48.1347 14.5716C43.5427 9.44954 37.623 3.2502 36.6291 2.52217C35.5263 1.71463 34.2168 1.17736 32.9298 1.00449L32.3121 0.921414V10.7611ZM61.0135 10.7611V20.6007H63.1026H65.1917L65.241 13.8621L65.2902 7.12342L66.1822 8.20988C67.1911 9.43864 75.1789 18.0835 76.0964 18.9396C77.2315 19.9988 79.3875 20.7275 81.3862 20.7275H82.302V10.898V1.06841H80.3062H78.3104L78.3096 8.64669L78.3089 16.225L77.016 14.7664C74.9873 12.4778 67.3217 4.25903 66.4269 3.41305C64.9789 2.04401 63.4081 1.25613 61.6312 1.00779L61.0135 0.921414V10.7611ZM0.126022 1.15301C0.0562647 1.19943 -0.000378249 5.23754 1.90237e-06 10.1265C0.000572129 18.963 0.00304303 19.0178 0.404102 19.4569C1.02109 20.1323 2.16515 20.6303 3.47705 20.7945L4.1809 20.8827V16.6195V12.3566H8.36257H12.5442V11.0908V9.82484L8.41009 9.79072L4.27594 9.75648V6.71249V3.66849L9.36046 3.63475L14.445 3.60089V2.33472V1.06841H7.34889C3.44588 1.06841 0.19559 1.10646 0.126022 1.15301ZM20.1473 10.0307V18.993L20.6082 19.5178C21.1145 20.0945 22.4131 20.6456 23.6161 20.7944L24.3289 20.8827V10.9755V1.06841H22.2381H20.1473V10.0307ZM97.0646 1.15301C96.8426 1.30115 96.9156 18.7694 97.14 19.1656C97.5799 19.9424 99.0319 20.6437 100.532 20.8038L101.31 20.8868V16.6217V12.3566H105.396H109.483V11.0882V9.81989H105.396H101.31V6.71249V3.60508H106.347H111.384V2.33674V1.06841H104.287C100.384 1.06841 97.1341 1.10646 97.0646 1.15301ZM116.516 10.903V20.7377L122.566 20.7009L128.616 20.6641L129.315 20.308C130.088 19.9142 130.67 19.2515 130.872 18.5337L131.004 18.064H125.945H120.887V9.56623V1.06841H118.701H116.516V10.903ZM143.543 1.50548C143.144 1.74596 142.591 2.22082 142.313 2.56086C141.696 3.31742 137.29 12.2297 137.533 12.2297C137.576 12.2297 138.009 12.0267 138.497 11.7785C138.984 11.5301 140.054 11.1164 140.874 10.8589C142.532 10.3383 142.363 10.5147 143.32 8.31426C143.543 7.79995 143.79 7.42897 143.868 7.48985C143.945 7.5506 145.347 9.91185 146.983 12.7371C148.618 15.5623 150.325 18.5016 150.777 19.269L151.597 20.6641L153.847 20.7C155.94 20.7334 156.088 20.7201 155.964 20.5098C155.891 20.3853 153.407 16.0601 150.443 10.898C147.479 5.73587 144.996 1.41239 144.925 1.29037C144.733 0.959338 144.35 1.01895 143.543 1.50548ZM185.133 10.9029V20.7374L191.373 20.7008L197.613 20.6641L198.312 20.308C199.085 19.9145 199.667 19.2516 199.868 18.5357L200 18.0681L194.705 18.0344L189.41 18.0006L189.358 15.1786L189.307 12.3566H193.493H197.678V11.0908V9.82484L193.544 9.79072L189.41 9.75648V6.71249V3.66849L194.494 3.63475L199.579 3.60089V2.33472V1.06841H192.356H185.133V10.9029ZM172.113 4.02667C173.435 4.43621 174.354 4.98109 174.93 5.69782C175.512 6.42255 175.509 8.01849 174.924 8.75386C173.855 10.0977 170.995 10.9637 166.941 11.1717L165.359 11.2527L165.41 7.52967L165.46 3.80661L165.935 3.71225C166.197 3.66037 167.437 3.63044 168.691 3.64566C170.737 3.67065 171.09 3.70984 172.113 4.02667ZM142.986 12.1039C140.948 12.5874 139.634 13.1526 137.972 14.2608C136.573 15.1936 136.191 15.5465 135.356 16.6769C134.407 17.9608 133.622 19.6316 133.622 20.3673V20.7275H135.58H137.538L137.778 19.9348C138.135 18.7597 139.343 17.1878 140.567 16.3056C141.673 15.5086 143.575 14.7665 145.182 14.5051C145.633 14.4317 145.975 14.3293 145.942 14.2777C145.909 14.2259 145.585 13.6584 145.222 13.0165C144.777 12.2283 144.468 11.8523 144.272 11.8585C144.112 11.8636 143.533 11.974 142.986 12.1039Z" fill="white"/>
</svg>
