<svg width="142" height="50" viewBox="0 0 142 50" fill="none" xmlns="http://www.w3.org/2000/svg">
<path fill-rule="evenodd" clip-rule="evenodd" d="M57.2735 1.74721C55.0027 3.52702 54.0086 5.04339 46.4887 18.1974C39.5952 30.2543 36.0159 35.1289 34.7296 34.2071C34.3231 33.9158 31.2273 30.7636 27.8497 27.2023C24.4728 23.6409 21.2952 20.6355 20.7879 20.524C18.625 20.0472 12.8455 26.9343 7.87829 35.9084C6.52929 38.3454 4.26879 41.9301 2.85468 43.8743C1.44058 45.818 0.16145 47.6012 0.0129728 47.8357C-0.135504 48.0701 1.00785 48.2624 2.55455 48.2624C5.02785 48.2624 5.60667 47.9682 7.36775 45.8146C8.46823 44.4684 10.7565 40.6868 12.4525 37.4111C15.2553 31.996 17.6484 28.2242 19.5961 26.1513C20.1328 25.5806 22.1377 27.2648 27.2526 32.5832C32.0404 37.5619 34.5851 39.7326 35.4871 39.608C37.1585 39.3776 41.3563 34.3477 43.8971 29.5317C50.5484 16.9262 52.6676 13.3763 55.9333 9.36887C57.9365 6.91082 59.854 5.11849 60.1954 5.38592C60.5369 5.65335 61.6223 7.66474 62.6076 9.85536C63.5937 12.046 64.753 14.1587 65.1857 14.5496C65.6669 14.986 67.9361 15.2608 71.0549 15.2608H76.1389L71.8394 11.6289C69.4749 9.63175 66.5474 6.75094 65.3334 5.22774C61.2427 0.0965606 60.0422 -0.422359 57.2735 1.74721ZM53.0725 25.7872V30.6236H57.6777C62.5616 30.6236 64.1964 29.9869 64.1765 28.0916C64.1559 26.1132 62.9427 25.3906 59.1259 25.0822C56.2167 24.8472 55.4545 24.565 55.4545 23.7217C55.4545 22.8244 56.0762 22.6577 59.4245 22.6577C62.4242 22.6577 63.3944 22.4489 63.3944 21.8042C63.3944 21.1334 62.2916 20.9507 58.2335 20.9507H53.0725V25.7872ZM66.5704 25.7872V30.6236H71.7314C74.643 30.6236 76.8924 30.3755 76.8924 30.0546C76.8924 29.7417 75.2845 29.4856 73.3194 29.4856C70.0378 29.4856 69.7464 29.3696 69.7464 28.0631C69.7464 26.7829 70.064 26.6407 72.9224 26.6407C75.2162 26.6407 76.0984 26.4034 76.0984 25.7872C76.0984 25.171 75.2162 24.9337 72.9224 24.9337C70.276 24.9337 69.7464 24.7442 69.7464 23.7957C69.7464 22.8261 70.276 22.6577 73.3194 22.6577C75.9658 22.6577 76.8924 22.4364 76.8924 21.8042C76.8924 21.1334 75.7895 20.9507 71.7314 20.9507H66.5704V25.7872ZM80.8623 24.9513C80.8623 27.9829 80.5741 29.0316 79.6714 29.2797C77.6538 29.8344 78.3549 30.7095 80.6638 30.5189C82.7806 30.3448 82.8545 30.2202 83.0832 26.4631C83.3174 22.6219 83.338 22.5889 85.4651 22.7647C87.5335 22.9359 87.62 23.081 87.8463 26.7829C88.0234 29.6871 88.3624 30.6236 89.2358 30.6236C90.1553 30.6236 90.3903 29.6393 90.3903 25.7872V20.9507H85.6263H80.8623V24.9513ZM91.9783 21.8042C91.9783 22.3351 92.7278 22.6577 93.9633 22.6577C95.8919 22.6577 95.9483 22.7715 95.9483 26.6407C95.9483 30.2441 96.0991 30.6236 97.5362 30.6236C98.9734 30.6236 99.1242 30.2441 99.1242 26.6407C99.1242 22.7715 99.1806 22.6577 101.109 22.6577C102.345 22.6577 103.094 22.3351 103.094 21.8042C103.094 21.1271 101.948 20.9507 97.5362 20.9507C93.1248 20.9507 91.9783 21.1271 91.9783 21.8042ZM105.837 22.3476C104.518 23.2927 103.888 24.3812 103.888 25.7149C103.888 28.4905 104.537 29.4026 107.218 30.396C112.98 32.5314 118.925 28.4774 116.562 24.0239C114.805 20.7118 109.317 19.8543 105.837 22.3476ZM119.768 25.7872C119.768 29.707 119.994 30.6236 120.959 30.6236C121.753 30.6236 122.15 30.0546 122.15 28.9166C122.15 27.3991 122.415 27.2097 124.532 27.2097C127.205 27.2097 130.09 25.4828 130.09 23.8839C130.09 22.1001 127.498 20.9507 123.477 20.9507H119.768V25.7872ZM132.472 25.7872C132.472 29.6393 132.707 30.6236 133.627 30.6236C134.5 30.6236 134.839 29.6871 135.016 26.7829L135.251 22.9422L138.626 22.7675C140.923 22.648 142 22.3305 142 21.7718C142 21.1476 140.857 20.9507 137.236 20.9507H132.472V25.7872ZM113.257 23.3405C113.781 23.716 114.21 24.85 114.21 25.8606C114.21 29.1926 109.93 30.7004 107.506 28.2208C105.087 25.7462 106.532 22.6577 110.109 22.6577C111.317 22.6577 112.733 22.965 113.257 23.3405ZM126.517 24.0802C126.517 24.8984 125.904 25.2688 124.334 25.398C122.441 25.5545 122.15 25.3786 122.15 24.0802C122.15 22.7817 122.441 22.6059 124.334 22.7624C125.904 22.8916 126.517 23.262 126.517 24.0802ZM61.4309 27.2347C62.2844 28.2242 60.0898 29.5545 57.9048 29.3724C56.4724 29.2529 55.7745 28.8142 55.5974 27.9209C55.3759 26.8017 55.6951 26.6407 58.1311 26.6407C59.6643 26.6407 61.149 26.9081 61.4309 27.2347ZM55.1162 36.5491L57.9707 39.6296L55.1242 42.6584C51.8378 46.1554 51.7076 46.5554 53.8554 46.5554C54.8153 46.5554 56.2541 45.665 57.534 44.2795C58.69 43.0277 59.719 42.0035 59.8215 42.0035C59.9239 42.0035 60.9529 43.0277 62.109 44.2795C63.3889 45.665 64.8276 46.5554 65.7876 46.5554C67.9297 46.5554 67.8027 46.1531 64.5799 42.7238L61.7961 39.7611L64.6045 36.6151L67.4129 33.4686H65.4684C64.1027 33.4686 63.0125 34.0615 61.8065 35.4601C60.8616 36.5554 59.9684 37.4515 59.8215 37.4515C59.6746 37.4515 58.7813 36.5554 57.8365 35.4601C56.6368 34.0689 55.5379 33.4686 54.1905 33.4686C52.2626 33.4686 52.2634 33.4697 55.1162 36.5491ZM71.8997 34.829C67.9623 37.4441 68.1386 42.6396 72.2475 45.1176C75.6529 47.1705 80.012 47.084 83.4301 44.8951C85.7804 43.3901 86.0233 42.9326 86.0233 40.012C86.0233 37.0914 85.7804 36.6339 83.4301 35.1289C80.0072 32.9371 74.9463 32.8057 71.8997 34.829ZM90.3903 38.5201C90.3903 43.0726 90.2204 43.6524 88.6665 44.3915C86.352 45.4931 87.4493 46.779 90.2704 46.2721C93.2122 45.7429 93.5401 45.1312 93.5544 40.1543L93.5663 35.7446H96.3151H99.0647L99.2926 41.0015C99.4871 45.4783 99.7277 46.2863 100.911 46.4485C102.169 46.6209 102.3 46.0183 102.3 40.0535V33.4686H96.3453H90.3903V38.5201ZM109.015 34.7676C106.466 36.3391 105.513 40.4581 107.075 43.1591C109.043 46.5645 117.036 47.6285 120.735 44.977C124.282 42.4359 123.898 36.8131 120.031 34.6322C117.123 32.9929 111.788 33.0583 109.015 34.7676ZM127.549 38.3608C127.275 42.1065 126.867 43.4658 125.86 43.9938C124.094 44.919 123.98 49.4004 125.723 49.4004C126.464 49.4004 126.914 48.8633 126.914 47.9779C126.914 46.5884 127.05 46.5554 132.813 46.5554C138.328 46.5554 138.73 46.6391 138.967 47.8357C139.107 48.5401 139.757 49.1159 140.412 49.1159C141.902 49.1159 142.453 46.2521 141.279 44.614C140.811 43.9602 140.334 41.2496 140.221 38.5895L140.015 33.7531L133.962 33.5881L127.911 33.4231L127.549 38.3608ZM80.5805 36.0086C84.0177 37.7337 83.3452 43.2786 79.5737 44.3062C75.229 45.4897 71.5067 42.5662 72.5048 38.754C72.9954 36.8797 75.4624 35.1756 77.6864 35.1756C78.3652 35.1756 79.6682 35.5505 80.5805 36.0086ZM118.18 36.3135C120.66 38.0905 120.382 42.144 117.676 43.6689C114.965 45.1972 113.773 45.1557 111.395 43.4516C108.939 41.6917 108.807 38.7562 111.092 36.6749C113.069 34.8729 115.964 34.7255 118.18 36.3135ZM136.442 40.012V44.2795H132.952H129.464L130.154 42.1457C130.535 40.9725 130.855 39.0521 130.865 37.8783C130.883 35.8214 130.984 35.7446 133.663 35.7446H136.442V40.012Z" fill="white"/>
</svg>
