<svg width="51" height="51" viewBox="0 0 51 51" fill="none" xmlns="http://www.w3.org/2000/svg">
<path d="M50.9818 9.7825C50.9818 17.5308 47.6039 23.1599 47.4619 23.3947C47.1758 23.8624 46.6805 24.1188 46.1695 24.1188C45.9012 24.1188 45.6309 24.0478 45.3862 23.8998C44.6719 23.4658 44.4431 22.5364 44.8752 21.8222C44.9067 21.7709 47.9551 16.6468 47.9551 9.7825C47.9551 5.86792 45.4099 3.02669 41.9017 3.02669C38.5633 3.02669 35.8484 5.74164 35.8484 9.08206C35.8484 10.5046 36.537 14.1193 36.8014 15.3919C36.973 16.2108 36.4462 17.0118 35.6274 17.1835C34.8085 17.3512 34.0075 16.8283 33.8378 16.0115C33.7332 15.5123 32.8177 11.0749 32.8177 9.08206C32.8177 4.0744 36.8921 0 41.9017 0C47.0771 0 50.9818 4.20462 50.9818 9.7825ZM42.1582 12.164C42.76 17.1934 43.6321 26.9936 42.6298 27.992L20.6379 49.9858C19.2864 51.3394 17.0903 51.3394 15.7368 49.9839L1.0315 35.2805C-0.322025 33.929 -0.322025 31.7329 1.0315 30.3794L23.0254 8.38754C23.3746 8.0383 27.1787 8.02252 31.4563 8.24547C31.4326 8.52762 31.3715 8.79399 31.3715 9.08206C31.3715 10.1791 31.6141 11.8799 31.8687 13.3755C31.4208 14.0404 31.1584 14.8395 31.1584 15.7017C31.1584 17.9984 33.0209 19.861 35.3176 19.861C37.6143 19.861 39.4768 17.9984 39.4768 15.7017C39.4768 14.287 38.7685 13.04 37.6892 12.2903C37.4683 10.9742 37.2907 9.70358 37.2907 9.08206C37.2907 8.94789 37.3183 8.82358 37.3301 8.69139C37.8569 8.74663 38.3759 8.80385 38.8672 8.86502C41.7735 9.22215 41.8031 9.21623 42.1582 12.164ZM30.4362 28.6234C30.0949 27.6743 29.5266 26.5359 28.2935 25.2257L29.9627 23.5546L28.104 21.6979L26.3026 23.5013C23.8915 21.8498 21.4055 21.984 19.7185 23.671C17.8796 25.5099 18.3137 27.844 19.6632 30.557C20.5906 32.4354 20.7603 33.5166 20.0401 34.2368C19.3002 34.9767 18.1065 34.6551 17.0233 33.5738C15.7921 32.3426 15.0699 30.8214 14.7108 29.5882L11.9209 31.2416C12.2445 32.3584 13.1166 33.9507 14.3478 35.2608L12.5286 37.0819L14.3853 38.9406L16.3406 36.9872C18.9194 38.8064 21.5199 38.5617 23.2069 36.8748C24.9333 35.1444 25.0852 33.2108 23.6054 30.1387C22.5794 27.9367 22.3328 26.8555 22.9405 26.2498C23.4732 25.717 24.4203 25.5651 25.6535 26.7983C27.0208 28.1656 27.4746 29.4935 27.7213 30.1959L30.4362 28.6234Z" fill="#1B3650"/>
</svg>
