<svg width="47" height="53" viewBox="0 0 47 53" fill="none" xmlns="http://www.w3.org/2000/svg">
<path d="M46.7831 45.0325C46.7831 45.0325 40.6786 34.9224 39.5836 33.1091C40.8295 32.7429 42.1566 32.4195 42.708 31.5019C43.627 29.9731 41.9912 27.4652 42.4207 25.8265C42.8632 24.14 45.4753 22.6807 45.4753 20.9664C45.4753 19.2962 42.7748 17.345 42.332 15.6684C41.8995 14.03 43.5304 11.5194 42.6084 9.99243C41.6865 8.46533 38.6156 8.5908 37.3514 7.41862C36.0508 6.21236 36.0548 3.26101 34.486 2.45263C32.9108 1.64125 30.3507 3.28106 28.6017 2.89263C26.8727 2.50863 25.328 0 23.5219 0C21.6891 0 18.774 2.84565 18.3168 2.94806C16.5687 3.33964 14.0054 1.70384 12.4319 2.51866C10.8645 3.32976 10.8742 6.2814 9.57588 7.48967C8.31384 8.66399 5.2428 8.54397 4.32365 10.0728C3.40466 11.6013 5.04051 14.1086 4.61111 15.7482C4.18052 17.3919 1.47749 19.0573 1.47749 20.9582C1.47749 22.6727 4.0961 24.1274 4.54125 25.8131C4.97392 27.4515 3.34297 29.9618 4.26494 31.4893C4.76687 32.3208 5.9057 32.6621 7.04303 32.9902C7.17576 33.0285 7.4268 33.1715 7.25677 33.4103C6.47868 34.7045 0.216041 45.1199 0.216041 45.1199C-0.282175 45.9483 0.122403 46.6584 1.11482 46.6987L5.97258 46.8939C6.965 46.9342 8.20995 47.6291 8.73967 48.4388L11.3318 52.4025C11.8616 53.2121 12.7021 53.1969 13.2001 52.3686C13.2001 52.3686 20.453 40.3023 20.4559 40.2988C20.6014 40.135 20.7477 40.1686 20.8177 40.2259C21.6113 40.8771 22.7175 41.5266 23.6408 41.5266C24.5463 41.5266 25.3847 40.9151 26.2141 40.2332C26.2816 40.1778 26.4458 40.0642 26.5659 40.3C26.5679 40.3037 33.8127 52.3041 33.8127 52.3041C34.3121 53.1313 35.1527 53.1454 35.6808 52.3347L38.2657 48.3663C38.7939 47.556 40.0375 46.8584 41.03 46.8167L45.8873 46.6128C46.8792 46.5708 47.2825 45.8597 46.7831 45.0325ZM31.55 34.1786C26.179 37.1897 19.7321 36.867 14.8079 33.8739C7.59253 29.4203 5.21842 20.2073 9.55596 12.993C13.943 5.69559 23.5867 3.12065 31.2278 7.13088C31.2679 7.15193 31.3076 7.1737 31.3474 7.19519C31.4041 7.22541 31.4605 7.25606 31.5169 7.287C33.8742 8.59667 35.9183 10.4974 37.3821 12.9219C41.8556 20.3319 39.2395 29.8677 31.55 34.1786Z" fill="#1B3650"/>
<path d="M30.3218 9.4678C30.2995 9.45533 30.2769 9.44373 30.2546 9.43142C26.1728 7.15495 20.9704 6.98852 16.6103 9.43299C10.14 13.0604 7.93831 21.0839 11.7026 27.3187C12.8512 29.2213 14.4252 30.7401 16.2412 31.8301C16.3956 31.9243 16.5519 32.017 16.7115 32.1061C23.1887 35.7222 31.5105 33.5861 35.2629 27.3446C39.0151 21.1029 36.799 13.0839 30.3218 9.4678ZM31.9422 19.6715L29.6742 21.8017C28.9717 22.4614 28.5327 23.7636 28.6987 24.6953L29.2341 27.7033C29.4 28.635 28.8253 29.0373 27.957 28.5974L25.1537 27.1772C24.2854 26.7373 22.8646 26.7373 21.9963 27.1772L19.1931 28.5974C18.3247 29.0373 17.75 28.635 17.9159 27.7033L18.4512 24.6953C18.6171 23.7636 18.178 22.4614 17.4756 21.8017L15.2078 19.6715C14.5052 19.0118 14.7249 18.3607 15.6956 18.2246L18.8297 17.7857C19.8004 17.6498 20.9499 16.845 21.3841 15.9974L22.7857 13.2608C23.2198 12.4131 23.9303 12.4131 24.3643 13.2608L25.766 15.9974C26.2002 16.845 27.3496 17.6498 28.3204 17.7857L31.4545 18.2246C32.4251 18.3607 32.6446 19.0118 31.9422 19.6715Z" fill="#1B3650"/>
</svg>
