<svg width="70" height="70" viewBox="0 0 70 70" fill="none" xmlns="http://www.w3.org/2000/svg">
<g clip-path="url(#clip0)">
<path d="M4.37489 4.76279C-1.12594 10.4765 -0.000110537 16.5461 -0.000110537 34.9853C-0.000110537 50.2978 -2.67178 65.6482 11.3107 69.2619C15.677 70.3849 54.3636 70.3849 58.7241 69.2561C64.5457 67.754 69.2824 63.0319 69.9299 54.7982C70.0203 53.649 70.0203 16.342 69.927 15.1695C69.2386 6.39904 63.8399 1.34445 56.7261 0.320704C55.0957 0.0844542 54.7691 0.0144542 46.4041 -0.000129171C16.7328 0.0144542 10.2286 -1.3068 4.37489 4.76279Z" fill="url(#paint0_linear)"/>
<path d="M34.994 9.15531C24.4035 9.15531 14.3469 8.21323 10.5056 18.0716C8.91895 22.1432 9.14937 27.4312 9.14937 35.0028C9.14937 41.647 8.93645 47.8916 10.5056 51.9312C14.3381 61.7953 24.4765 60.8503 34.9881 60.8503C45.1294 60.8503 55.5856 61.9062 59.4735 51.9312C61.0631 47.8187 60.8298 42.6095 60.8298 35.0028C60.8298 24.9053 61.3869 18.3866 56.4898 13.4924C51.5315 8.53406 44.826 9.15531 34.9823 9.15531H34.994ZM32.6781 13.8132C54.769 13.7782 57.5806 11.3224 56.0289 45.4387C55.4777 57.5049 46.2902 56.1807 34.9969 56.1807C14.4052 56.1807 13.8131 55.5916 13.8131 34.9912C13.8131 14.1516 15.4465 13.8249 32.6781 13.8074V13.8132ZM48.7898 18.1036C47.0777 18.1036 45.6894 19.492 45.6894 21.2041C45.6894 22.9162 47.0777 24.3045 48.7898 24.3045C50.5019 24.3045 51.8902 22.9162 51.8902 21.2041C51.8902 19.492 50.5019 18.1036 48.7898 18.1036ZM34.994 21.7291C27.6644 21.7291 21.7231 27.6732 21.7231 35.0028C21.7231 42.3324 27.6644 48.2737 34.994 48.2737C42.3235 48.2737 48.2619 42.3324 48.2619 35.0028C48.2619 27.6732 42.3235 21.7291 34.994 21.7291ZM34.994 26.387C46.3835 26.387 46.3981 43.6187 34.994 43.6187C23.6073 43.6187 23.5898 26.387 34.994 26.387Z" fill="white"/>
</g>
<defs>
<linearGradient id="paint0_linear" x1="4.50912" y1="65.5289" x2="69.5667" y2="9.22229" gradientUnits="userSpaceOnUse">
<stop stop-color="#FFDD55"/>
<stop offset="0.45625" stop-color="#FF543E"/>
<stop offset="1" stop-color="#C837AB"/>
</linearGradient>
<clipPath id="clip0">
<rect width="70" height="70" fill="white"/>
</clipPath>
</defs>
</svg>
