<svg width="55" height="55" viewBox="0 0 55 55" fill="none" xmlns="http://www.w3.org/2000/svg">
<g clip-path="url(#clip0)">
<path d="M3.43757 3.74235C-0.884513 8.23172 7.00802e-05 13.0007 7.00802e-05 27.4886C7.00802e-05 39.5198 -2.0991 51.5809 8.88715 54.4203C12.3178 55.3026 42.7144 55.3026 46.1405 54.4157C50.7147 53.2355 54.4363 49.5253 54.9451 43.0559C55.0161 42.153 55.0161 12.8403 54.9428 11.919C54.4019 5.02797 50.1601 1.05651 44.5707 0.252139C43.2896 0.0665138 43.033 0.0115138 36.4605 5.54621e-05C13.1474 0.0115138 8.03695 -1.02661 3.43757 3.74235Z" fill="#1A354F"/>
<path d="M27.4953 7.19343C19.1743 7.19343 11.2726 6.45322 8.25448 14.1991C7.00782 17.3982 7.18886 21.553 7.18886 27.5022C7.18886 32.7226 7.02157 37.6291 8.25448 40.803C11.2657 48.5534 19.2316 47.8109 27.4907 47.8109C35.4589 47.8109 43.6745 48.6405 46.7293 40.803C47.9782 37.5718 47.7949 33.4788 47.7949 27.5022C47.7949 19.5684 48.2326 14.4466 44.3849 10.6011C40.4891 6.7053 35.2205 7.19343 27.4862 7.19343H27.4953ZM25.6757 10.8532C43.0328 10.8257 45.242 8.89614 44.0228 35.7018C43.5897 45.1824 36.3709 44.142 27.4976 44.142C11.3184 44.142 10.8532 43.6791 10.8532 27.493C10.8532 11.1191 12.1366 10.8624 25.6757 10.8486V10.8532ZM38.3349 14.2243C36.9897 14.2243 35.8989 15.3151 35.8989 16.6603C35.8989 18.0055 36.9897 19.0963 38.3349 19.0963C39.6801 19.0963 40.7709 18.0055 40.7709 16.6603C40.7709 15.3151 39.6801 14.2243 38.3349 14.2243ZM27.4953 17.0728C21.7364 17.0728 17.0682 21.7432 17.0682 27.5022C17.0682 33.2611 21.7364 37.9293 27.4953 37.9293C33.2543 37.9293 37.9201 33.2611 37.9201 27.5022C37.9201 21.7432 33.2543 17.0728 27.4953 17.0728ZM27.4953 20.7326C36.4443 20.7326 36.4557 34.2718 27.4953 34.2718C18.5486 34.2718 18.5349 20.7326 27.4953 20.7326Z" fill="white"/>
</g>
<defs>
<clipPath id="clip0">
<rect width="55" height="55" fill="white"/>
</clipPath>
</defs>
</svg>
