<svg width="223" height="59" viewBox="0 0 223 59" fill="none" xmlns="http://www.w3.org/2000/svg">
<path d="M4.8 54H14.84C22 54 24.44 49.92 24.44 46.08C24.44 40 18.4 39.24 16 39.12V38.96C19.72 38.92 22.88 35.96 22.88 32.6C22.88 29.64 20.4 26 14.8 26H4.8V54ZM8.44 52.24V40H12.84C18.04 40 20.48 42.96 20.48 46.4C20.48 50.12 17.68 52.24 14.24 52.24H8.44ZM8.44 38.24V27.76H13.32C17.44 27.76 19.12 30.36 19.12 32.84C19.12 35.96 16.44 38.24 13.24 38.24H8.44ZM30.825 34V54H41.345C44.265 54 47.145 51.96 47.145 48.68C47.145 43.24 41.625 43.08 39.025 43.08H34.225V34H30.825ZM51.345 34V54H54.745V34H51.345ZM34.225 52.48V44.44H38.825C39.785 44.44 43.465 44.6 43.465 48.72C43.465 51.2 41.625 52.48 39.545 52.48H34.225ZM80.7775 52.4L73.0975 34H70.6975L63.2175 52.4H60.3375V58.2H63.1375V54H80.7375V58.2H83.5375V52.4H80.7775ZM70.9775 37.96H71.2175L77.1775 52.4H65.0975L70.9775 37.96ZM96.4819 33.56C91.7619 33.56 90.1219 35.28 88.6419 36.92L90.7219 39C92.2419 36.56 93.5219 35.04 96.5219 35.04C100.002 35.04 101.082 37.12 101.082 41.52V43.24C99.6819 41.52 97.4019 40.56 95.0019 40.56C90.1619 40.56 87.5219 44.32 87.5219 47.72C87.5219 51 89.9219 54.48 94.5219 54.48C96.9219 54.48 99.5619 53.52 101.082 52.04V54H104.322V43.08C104.322 38.28 104.322 33.56 96.4819 33.56ZM101.082 49.16C100.162 51.32 97.8819 52.88 95.8819 52.88C93.7219 52.88 90.9619 51.12 90.9619 47.76C90.9619 44.88 92.9619 42.28 96.0819 42.28C99.1619 42.28 100.562 44.84 101.082 46.08V49.16ZM132.108 44.44H142.228V54H145.628V34H142.228V43.08H132.108V34H128.708V54H132.108V44.44ZM161.388 33.56C156.668 33.56 155.028 35.28 153.548 36.92L155.628 39C157.148 36.56 158.428 35.04 161.428 35.04C164.908 35.04 165.988 37.12 165.988 41.52V43.24C164.588 41.52 162.308 40.56 159.908 40.56C155.068 40.56 152.428 44.32 152.428 47.72C152.428 51 154.828 54.48 159.428 54.48C161.828 54.48 164.468 53.52 165.988 52.04V54H169.228V43.08C169.228 38.28 169.228 33.56 161.388 33.56ZM165.988 49.16C165.068 51.32 162.788 52.88 160.788 52.88C158.628 52.88 155.868 51.12 155.868 47.76C155.868 44.88 157.868 42.28 160.988 42.28C164.068 42.28 165.468 44.84 165.988 46.08V49.16Z" fill="white"/>
<path d="M116.873 53V2H8H169" stroke="white" stroke-width="3"/>
<path d="M38.8776 2V10.2653M38.8776 10.2653L28 17H54L38.8776 10.2653Z" stroke="#AFAFAF" stroke-width="2"/>
<path d="M56.551 2V11.9184M56.551 11.9184L44 20H74L56.551 11.9184Z" stroke="white" stroke-width="2"/>
</svg>
