<svg width="134" height="51" viewBox="0 0 134 51" fill="none" xmlns="http://www.w3.org/2000/svg">
<path class="svg-class" d="M6.6 44H14.13C19.5 44 21.33 40.94 21.33 38.06C21.33 33.5 16.8 32.93 15 32.84V32.72C17.79 32.69 20.16 30.47 20.16 27.95C20.16 25.73 18.3 23 14.1 23H6.6V44ZM9.33 42.68V33.5H12.63C16.53 33.5 18.36 35.72 18.36 38.3C18.36 41.09 16.26 42.68 13.68 42.68H9.33ZM9.33 32.18V24.32H12.99C16.08 24.32 17.34 26.27 17.34 28.13C17.34 30.47 15.33 32.18 12.93 32.18H9.33ZM26.1188 29V44H34.0088C36.1988 44 38.3588 42.47 38.3588 40.01C38.3588 35.93 34.2188 35.81 32.2688 35.81H28.6688V29H26.1188ZM41.5088 29V44H44.0588V29H41.5088ZM28.6688 42.86V36.83H32.1188C32.8388 36.83 35.5988 36.95 35.5988 40.04C35.5988 41.9 34.2188 42.86 32.6588 42.86H28.6688ZM63.5831 42.8L57.8231 29H56.0231L50.4131 42.8H48.2531V47.15H50.3531V44H63.5531V47.15H65.6531V42.8H63.5831ZM56.2331 31.97H56.4131L60.8831 42.8H51.8231L56.2331 31.97ZM75.3614 28.67C71.8214 28.67 70.5914 29.96 69.4814 31.19L71.0414 32.75C72.1814 30.92 73.1414 29.78 75.3914 29.78C78.0014 29.78 78.8114 31.34 78.8114 34.64V35.93C77.7614 34.64 76.0514 33.92 74.2514 33.92C70.6214 33.92 68.6414 36.74 68.6414 39.29C68.6414 41.75 70.4414 44.36 73.8914 44.36C75.6914 44.36 77.6714 43.64 78.8114 42.53V44H81.2414V35.81C81.2414 32.21 81.2414 28.67 75.3614 28.67ZM78.8114 40.37C78.1214 41.99 76.4114 43.16 74.9114 43.16C73.2914 43.16 71.2214 41.84 71.2214 39.32C71.2214 37.16 72.7214 35.21 75.0614 35.21C77.3714 35.21 78.4214 37.13 78.8114 38.06V40.37ZM102.081 36.83H109.671V44H112.221V29H109.671V35.81H102.081V29H99.5309V44H102.081V36.83ZM124.041 28.67C120.501 28.67 119.271 29.96 118.161 31.19L119.721 32.75C120.861 30.92 121.821 29.78 124.071 29.78C126.681 29.78 127.491 31.34 127.491 34.64V35.93C126.441 34.64 124.731 33.92 122.931 33.92C119.301 33.92 117.321 36.74 117.321 39.29C117.321 41.75 119.121 44.36 122.571 44.36C124.371 44.36 126.351 43.64 127.491 42.53V44H129.921V35.81C129.921 32.21 129.921 28.67 124.041 28.67ZM127.491 40.37C126.801 41.99 125.091 43.16 123.591 43.16C121.971 43.16 119.901 41.84 119.901 39.32C119.901 37.16 121.401 35.21 123.741 35.21C126.051 35.21 127.101 37.13 127.491 38.06V40.37Z" fill="#4D4D4D"/>
<path class="svg-class" d="M90.6148 44V1H0H134" stroke="#4C4C4C" stroke-width="2"/>
<path d="M29.8776 1V9.26531M29.8776 9.26531L19 16H45L29.8776 9.26531Z" stroke="#AFAFAF" stroke-width="2"/>
<path class="svg-class" d="M46.551 1V10.9184M46.551 10.9184L34 19H64L46.551 10.9184Z" stroke="#4C4C4C" stroke-width="2"/>
</svg>
