<svg width="55" height="55" viewBox="0 0 55 55" fill="none" xmlns="http://www.w3.org/2000/svg">
<path d="M41.8145 36.3834C40.0177 34.6095 37.7744 34.6095 35.989 36.3834C34.6271 37.7339 33.2651 39.0844 31.9261 40.4578C31.5598 40.8355 31.2508 40.9156 30.8045 40.6638C29.9232 40.1832 28.9847 39.794 28.1378 39.2676C24.1893 36.784 20.8817 33.5909 17.9517 29.9971C16.4982 28.2117 15.2049 26.3004 14.3008 24.1487C14.1177 23.7138 14.152 23.4277 14.5068 23.0729C15.8688 21.7568 17.1964 20.4062 18.5354 19.0557C20.401 17.1788 20.401 14.9813 18.524 13.0929C17.4596 12.0171 16.3952 10.9641 15.3308 9.88831C14.2321 8.78959 13.1448 7.67943 12.0347 6.59216C10.2378 4.84108 7.99461 4.84108 6.20919 6.6036C4.83579 7.95411 3.51962 9.33895 2.12333 10.6666C0.830051 11.8912 0.177687 13.3905 0.0403468 15.1416C-0.177108 17.9914 0.521036 20.6809 1.5053 23.3018C3.51962 28.7267 6.58688 33.5451 10.3065 37.9628C15.3308 43.9371 21.328 48.6639 28.3438 52.0745C31.5026 53.6081 34.7759 54.7869 38.3353 54.9815C40.7845 55.1188 42.9132 54.5008 44.6185 52.5895C45.7859 51.2848 47.1021 50.0945 48.3382 48.847C50.1694 46.9929 50.1808 44.7497 48.361 42.9185C46.1865 40.7325 44.0005 38.558 41.8145 36.3834Z" fill="#1A354F"/>
<path d="M39.6285 27.2618L43.8517 26.5408C43.1879 22.6609 41.3567 19.1473 38.5756 16.3548C35.6342 13.4134 31.9146 11.5593 27.8173 10.9871L27.2222 15.2331C30.3924 15.6795 33.2766 17.1101 35.5541 19.3877C37.7058 21.5393 39.1135 24.2632 39.6285 27.2618Z" fill="#1A354F"/>
<path d="M46.2323 8.9042C41.3567 4.02863 35.1879 0.949933 28.3781 0L27.783 4.24609C33.6657 5.07013 38.999 7.73681 43.2108 11.9371C47.2051 15.9314 49.826 20.9787 50.7759 26.5295L54.9991 25.8084C53.889 19.3764 50.856 13.5394 46.2323 8.9042Z" fill="#1A354F"/>
</svg>
